<svg xmlns="http://www.w3.org/2000/svg" viewBox="0 0 426.58 473.49"><defs><style>.cls-1{fill:#eee;}</style></defs><title>資產 4</title><g id="圖層_2" data-name="圖層 2"><g id="圖層_1-2" data-name="圖層 1"><g id="圖層_1-2-2" data-name="圖層 1-2"><path class="cls-1" d="M22.76,451H329.65s-27.12,19.93-71.35,21.7-172.76,0-172.76,0S47,471.35,22.76,451Z"/><path class="cls-1" d="M20.52,157c0-13.35,4.06-24.08,12.18-33,1.67-1.67,3.05-3.5,4.87-5.16A50.07,50.07,0,0,0,49,100.7,58.65,58.65,0,0,0,52.81,84a37.25,37.25,0,0,0-2.24-14.2A68.61,68.61,0,0,0,43.9,56.46a33.46,33.46,0,0,1-2-3.7,4.19,4.19,0,0,1,.4-4.32,4.44,4.44,0,0,1,3.86-1.23c10,1,17.66,6.39,23.95,13.58a36.06,36.06,0,0,1,8.34,18.36c2.44,14-1,26.7-8.53,38.5a75.77,75.77,0,0,1-12.45,14.29c-3.25,2.89-6.68,5.77-9.75,8.86a66.22,66.22,0,0,0-7.29,7.83,36,36,0,0,0-7.31,25.12c.2,1.67.6,3.34.8,5,0,.6.2,1,.2,1.67a2.4,2.4,0,0,1-1.67,2.27,2.47,2.47,0,0,1-2.64-.42l-.8-.82C23.57,173.77,20,165.31,20.52,157Z"/><path class="cls-1" d="M0,129.29A26.44,26.44,0,0,1,4.9,113.24,90.76,90.76,0,0,1,10.79,106c1.8-2.27,4.06-4.32,5.89-6.68a46.08,46.08,0,0,0,4.06-6.17,17.19,17.19,0,0,0,1.67-14.39,37.47,37.47,0,0,0-1.67-4.32,6.68,6.68,0,0,1-.6-1.85,3.15,3.15,0,0,1,3-4.12,9.36,9.36,0,0,1,3.45.6,16.36,16.36,0,0,1,5.27,3.7A27.62,27.62,0,0,1,39,88.66a21.09,21.09,0,0,1-6.49,17.29A53.55,53.55,0,0,1,26,111.1a70.26,70.26,0,0,0-8.53,7c-6.89,7.26-8.53,15.72-6.29,25.18.2.82.6,1.67.8,2.47a2.67,2.67,0,0,1-1,3.09,2.19,2.19,0,0,1-3.05,0,7,7,0,0,1-2.44-2.45A26.7,26.7,0,0,1,.63,133.6,19.93,19.93,0,0,1,0,129.29Z"/><path class="cls-1" d="M339.11,122.78a35.33,35.33,0,0,0,9.6,25.37c1.29,1.27,2.4,2.7,3.84,4a38.38,38.38,0,0,1,9,14,44.26,44.26,0,0,1,3,12.85,28.05,28.05,0,0,1-1.77,10.95,52.34,52.34,0,0,1-5.29,10.31,25.58,25.58,0,0,0-1.67,2.85,3.15,3.15,0,0,0,.32,3.34,3.57,3.57,0,0,0,3.05,1c7.84-.78,13.94-4.92,18.91-10.46a27.69,27.69,0,0,0,6.68-14.12c1.92-10.8-.8-20.61-6.68-29.66a58.76,58.76,0,0,0-9.85-11.13c-2.55-2.22-5.29-4.44-7.69-6.81a51.57,51.57,0,0,1-5.77-6A27.27,27.27,0,0,1,349,109.77c.17-1.27.48-2.54.63-3.81,0-.47.17-.78.17-1.27a1.85,1.85,0,0,0-1.29-1.67,2,2,0,0,0-2.09.32l-.63.63C341.52,109.62,338.8,116.13,339.11,122.78Z"/><path class="cls-1" d="M322.93,144a20,20,0,0,0,3.84,12.37c1.44,1.9,3.05,3.81,4.64,5.56s3.2,3.34,4.64,5a35.41,35.41,0,0,1,3.2,4.76,13,13,0,0,1,1.32,11.1,28.37,28.37,0,0,1-1.29,3.34,5,5,0,0,0-.48,1.44,2.44,2.44,0,0,0,2.4,3.17,7.54,7.54,0,0,0,2.72-.47,12.92,12.92,0,0,0,4.17-2.85,21,21,0,0,0,5.61-12.22,16.07,16.07,0,0,0-5.12-13.35,43.59,43.59,0,0,0-5.12-4,55.41,55.41,0,0,1-6.68-5.39c-5.44-5.56-6.68-12-5-19.34.17-.63.48-1.27.63-1.9a2,2,0,0,0-.8-2.4,1.67,1.67,0,0,0-2.36,0l0,0a5.49,5.49,0,0,0-1.92,1.9,20.18,20.18,0,0,0-3.84,9.83A15,15,0,0,0,322.93,144Z"/><path class="cls-1" d="M302.82,39.29,304.19,38a19.75,19.75,0,0,1,13.1-5.57,96.61,96.61,0,0,1,13.35.68c1.1.08,2.17.23,3.34.23s1.67.55,1.67,1.33a1.32,1.32,0,0,1-1.3,1.32h-2.19l-15-.23a15.31,15.31,0,0,0-12.58,6.09,2.7,2.7,0,0,0-.6,2.62,48.38,48.38,0,0,1-.22,26.17,37.43,37.43,0,0,1-5.39,10.66c.8.43,1.52.08,2.22,0a68.4,68.4,0,0,1,17.65-.6A36.92,36.92,0,0,1,334,86.29c1.92,1.2,3.92,2.32,5.92,3.42a13.11,13.11,0,0,0,5.46,1.67,3.82,3.82,0,0,0,4.1-2.22,7.84,7.84,0,0,0,.75-4.25,17.82,17.82,0,0,0-6.67-12.24,10.93,10.93,0,0,0-12.93-1.07,30,30,0,0,0-3.34,2.14,3.34,3.34,0,0,0-1.47,1.67,2,2,0,0,1-2.58,1.23h0A1.92,1.92,0,0,1,321.92,74a4,4,0,0,1,.9-1.45,26.69,26.69,0,0,1,7-5.25c4.45-2.3,8.86-1.67,13.18.42a13.83,13.83,0,0,1,4,3,22.17,22.17,0,0,1,6.16,16.18,7.41,7.41,0,0,1-1.1,3.6,7.66,7.66,0,0,1-7.22,3.89A20.27,20.27,0,0,1,336,91.77c-1.87-.92-3.69-2-5.47-3a31.3,31.3,0,0,0-15.58-4.34,101.36,101.36,0,0,0-20,1.67,4,4,0,0,0-2,.78,37.72,37.72,0,0,1-11.23,6.24,19.73,19.73,0,0,1-3.09,1.05,5.22,5.22,0,0,0-4.09,3.57c-.87,2.19-1.94,4.3-2.85,6.47a23.09,23.09,0,0,0-1,5.57c-.08.5.25.82.6,1.15,5.17,5,7,11.29,8.21,17.82.13.75.25,1.5.42,2.24a1.4,1.4,0,0,1-.6,1.67,2,2,0,0,0-1.12,2,2.74,2.74,0,0,1-2.19,2.67,3.67,3.67,0,0,1-3.69-1.57,10.79,10.79,0,0,1-1.27-2.79,95.09,95.09,0,0,0-8.34-19.87,4.79,4.79,0,0,0-1.92-1.67,134.56,134.56,0,0,0-14.18-7.27c-3.94-1.94-8-3.54-12.11-5.24-4.55-1.9-9.09-3.87-13.61-5.84a45.84,45.84,0,0,1-8.11-3.69,1.85,1.85,0,0,0-1-.22c-7.62-.1-15.26-.45-22.8.77-3.09.5-6.24.77-9.31,1.43a2.94,2.94,0,0,1-3.47-2.29V88.9c-.25-2.7,0-3.15,3-4.1a51.4,51.4,0,0,1,13.58-2,151.92,151.92,0,0,1,16.18-.05c1.15,0,1.57-.3,1.67-1.3.52-3.25,1.52-6.41,2.22-9.59.48-2.15.72-4.37,1.07-6.54a5.22,5.22,0,0,1,.32-1.48c1.2-2.4.12-4.55-1.2-6.39a32.53,32.53,0,0,0-11.24-10.13,14,14,0,0,0-9.26-1.8,8.34,8.34,0,0,0-7.09,6.34,14,14,0,0,0,2.07,11.28,4.75,4.75,0,0,0,.6.77,1.67,1.67,0,0,0,2.75,0c1-1,1.84-1.89,2.75-2.82a3.19,3.19,0,0,1,2.79-.93,1.67,1.67,0,0,1,1.55,1.07,1.2,1.2,0,0,1-.62,1.57h0c-1,.43-1.3,1.25-1.8,2a8.34,8.34,0,0,1-3.57,3.34,6.67,6.67,0,0,1-7.37-1.38c-4.65-4.47-7.27-13.35-2.82-20a14.73,14.73,0,0,1,14.68-6A24.82,24.82,0,0,1,209,46.92a6.14,6.14,0,0,0,2.05,1.45c-1.23-7.56-.88-14.81,3.34-21.5A41.47,41.47,0,0,1,231.9,12a9.78,9.78,0,0,0-3.82-3.64A34,34,0,0,0,216.4,4.24c-2.62-.52-5.27-.92-7.91-1.38a11.33,11.33,0,0,1-1.2-.23,1.25,1.25,0,0,1-1.07-1.4h0A1.33,1.33,0,0,1,207.67,0h.13a20.89,20.89,0,0,1,2.87.28,69.76,69.76,0,0,1,12.93,2.27C228,4,232.05,5.89,234.71,9.66c.53.75,1,.6,1.67.3a62.64,62.64,0,0,1,14.18-3.89,45.91,45.91,0,0,1,15.18-.18,43.94,43.94,0,0,1,26.69,15.3,53.9,53.9,0,0,1,9.69,17A1.67,1.67,0,0,0,302.82,39.29Zm-79.7-16.61a.87.87,0,0,0-.83.32,23,23,0,0,0-7.76,15.85,47.1,47.1,0,0,0,4.41,20.24,2.37,2.37,0,0,0,1.92,1.49c1.67.35,3.49.73,5.19,1.2a98.47,98.47,0,0,1,17.61,7.29c5.66,2.85,10.93,6.06,16.36,9.16a90.72,90.72,0,0,1,15.94,10.68c.53.48.93.3,1.45,0a52.49,52.49,0,0,1,5.34-2.45,14.69,14.69,0,0,0,6.89-5.19,34,34,0,0,0,6.68-20,63,63,0,0,0-.75-11.5,72,72,0,0,0-2.75-12.2,2.14,2.14,0,0,0-2-1.67,9,9,0,0,0-5.77.87,16.79,16.79,0,0,0-7.94,8.86,3.52,3.52,0,0,0,.53,4.24,1.4,1.4,0,0,1,0,2l-.12.1a1.94,1.94,0,0,1-2.27.3,2.94,2.94,0,0,1-1.39-1.34,6.38,6.38,0,0,1-.78-3.67c.17-4,2.4-7.19,5.22-10a15.57,15.57,0,0,1,11.5-5.14,1.8,1.8,0,0,0,.55-.18c-8.16-20.13-30.82-27.55-51.92-18.32.27.13.48.27.73.37a13.35,13.35,0,0,1,8.78,10.23,10,10,0,0,1-5.39,11.15,7.56,7.56,0,0,1-5.34.85c-.9-.23-1.67-.68-1.67-1.67s.78-1.39,1.8-1.45a6.53,6.53,0,0,0,1-.17A6.68,6.68,0,0,0,243.93,27a9.45,9.45,0,0,0-3.42-8.19,5.57,5.57,0,0,0-3-1.55c.13,1.67.32,3,.37,4.47a12.08,12.08,0,0,1-4.14,10.11,5.82,5.82,0,0,1-8.73-.8A9.31,9.31,0,0,1,223.05,25c0-.78,0-1.55.07-2.35Zm11,1.3a17.19,17.19,0,0,0,0-6c-.13-.87-.6-1-1.4-.67-4.26,1.67-6.41,7.46-4,11.06,1,1.45,1.8,1.54,3.05.3A8.8,8.8,0,0,0,234.12,24Z"/><path class="cls-1" d="M141.68,152.49a39.74,39.74,0,0,1-2.75-7.79c-1.27-4.67-2.44-9.35-3.7-13.9-1-3.55-2.12-7-3.34-10.46a64,64,0,0,0-4.56-10.8,43,43,0,0,0-3.69-6,12.58,12.58,0,0,1-1.9-3.79,2.65,2.65,0,0,1,1.3-3.52l.08,0a6,6,0,0,1,2.65-.78,23.18,23.18,0,0,1,10,1.12,19.58,19.58,0,0,1,2.65,1.2,56.08,56.08,0,0,1,10.2,6.68,37.17,37.17,0,0,1,7,8.34,58,58,0,0,1,4.52,7.91,54.59,54.59,0,0,1,3.19,10.8l1,5.67a52.15,52.15,0,0,1,.67,7,41.72,41.72,0,0,1-1.8,12.45,22.83,22.83,0,0,1-2.75,5.91A6.21,6.21,0,0,1,152,165l-.38-.23a20.51,20.51,0,0,1-5-4.44A40.74,40.74,0,0,1,141.68,152.49Z"/><path class="cls-1" d="M125.18,109.65a129.67,129.67,0,0,1,5.52,15c1.67,5.56,3.34,11,5,16.47l2.82,9a35.91,35.91,0,0,0,5,9.9c.85,1.2,1.67,2.55,2.55,3.91a6,6,0,0,1,.63,1.8,2.3,2.3,0,0,1-1.49,2.55,5.24,5.24,0,0,1-1.17.22,11.1,11.1,0,0,1-4.67-.67,49.22,49.22,0,0,1-17.19-10.35,46.46,46.46,0,0,1-6.89-7.68,34.71,34.71,0,0,1-4.24-8.46,70,70,0,0,1-2.75-10.56,33,33,0,0,1-.43-9.13c.32-2.67.63-5.46,1.07-8.13a36.08,36.08,0,0,1,3.6-9.8,4.54,4.54,0,0,1,7.33-1.45,19,19,0,0,1,3.62,4.62C124.06,107.75,124.59,108.87,125.18,109.65Z"/><path class="cls-1" d="M212.21,177.34a28.7,28.7,0,0,0,2-5.17c.93-3.05,1.67-6.09,2.6-9.15.72-2.34,1.55-4.67,2.29-6.91a49,49,0,0,1,3.2-7.11,26.42,26.42,0,0,1,2.57-4,8.7,8.7,0,0,0,1.34-2.54,1.67,1.67,0,0,0-.71-2.25l-.19-.09a4.16,4.16,0,0,0-1.84-.52,16.09,16.09,0,0,0-6.93.77,14.44,14.44,0,0,0-1.84.8,35.45,35.45,0,0,0-7,4.34,35.83,35.83,0,0,0-8.11,10.73,28.77,28.77,0,0,0-2.19,7.11c-.22,1.2-.53,2.54-.73,3.76a23.2,23.2,0,0,0-.43,4.57,28.37,28.37,0,0,0,1.27,8.24,14.34,14.34,0,0,0,1.9,4,4.44,4.44,0,0,0,6.09,1.45,12.85,12.85,0,0,0,3.34-2.84A33,33,0,0,0,212.21,177.34Z"/><path class="cls-1" d="M223.91,149.14a79.66,79.66,0,0,0-3.84,10c-1.15,3.65-2.29,7.31-3.54,10.86-.6,2-1.35,4-2.07,5.89a23.63,23.63,0,0,1-3.5,6.49,17.48,17.48,0,0,0-1.67,2.54,4.31,4.31,0,0,0-.42,1.2,1.4,1.4,0,0,0,1,1.67,2.24,2.24,0,0,0,.82.1,11.93,11.93,0,0,0,3.34-.38A33.73,33.73,0,0,0,226,180.85a28.37,28.37,0,0,0,4.79-5,22.65,22.65,0,0,0,3-5.57,41.1,41.1,0,0,0,2-6.91,24.58,24.58,0,0,0,.35-6.11c-.18-1.84-.38-3.55-.68-5.39a20.58,20.58,0,0,0-2.64-6.58,3.34,3.34,0,0,0-5-1.05,14,14,0,0,0-2.57,2.94A15.39,15.39,0,0,0,223.91,149.14Z"/><path class="cls-1" d="M315.41,369.29a10.59,10.59,0,0,1-1,1.37,253.4,253.4,0,0,1-16.66,21.75,127.81,127.81,0,0,1-67.54,39.74A232.31,232.31,0,0,1,201.82,437a212.06,212.06,0,0,1-31,.75,207.28,207.28,0,0,1-30.51-3.48,159.18,159.18,0,0,1-32-10,173.53,173.53,0,0,1-38-22.07,169.67,169.67,0,0,1-26.93-26.3A283.14,283.14,0,0,1,22,347.51,131.4,131.4,0,0,1,3.77,302.67a149.57,149.57,0,0,1-3-40.86,179.75,179.75,0,0,1,3.33-29.46q1.58-7.49,3.9-14.81a29.66,29.66,0,0,1,4.55-8.61,15.37,15.37,0,0,1,8.13-5.75,55.91,55.91,0,0,1,13.16-2.43c6.16-.45,12.34-.75,18.5-1a37.77,37.77,0,0,1,5.85.15c1,0,2.12.15,3.08.15l31.5-.45,22.62-.45c9.09-.3,18.19-.45,27.27-.9,15.09-.6,30.2-.75,45.14-.75,12,0,24.18-.15,36.21.15,9.74.15,19.32.6,29.06.9,6.16.15,12.49.45,18.67.75,11.66.6,23.22,1.37,35,2.27a104.66,104.66,0,0,1,16.54,2.63,28.31,28.31,0,0,1,18.19,13.14c1.47,2.43,2.6,5,3.9,7.71h.82a69.64,69.64,0,0,1,55.2,14.81,65,65,0,0,1,23.83,39,78.16,78.16,0,0,1,.82,24.63,92.64,92.64,0,0,1-7,27,81.61,81.61,0,0,1-22.57,30.23,78,78,0,0,1-48.7,15.86,87.77,87.77,0,0,1-31.18-6.8A8.33,8.33,0,0,0,315.41,369.29Zm13.71-25.83a5.61,5.61,0,0,1,1,.45,52.89,52.89,0,0,0,28.47,2.69c8.63-1.8,16.1-5.22,22-11.35a56.74,56.74,0,0,0,12.85-21A64.62,64.62,0,0,0,397,296a41.17,41.17,0,0,0-5.54-25q-10.75-17.91-33.19-19.71a31,31,0,0,0-9.76.9c-.17,1.94-.17,3.87-.32,5.67-.48,5.67-.82,11.48-1.67,17.16-1.47,10.15-3.34,20.14-5,30.14a130.36,130.36,0,0,1-9.78,32,65.09,65.09,0,0,1-2.6,6.39ZM103.63,250.64c1.8-1.2,3.34-2.09,4.72-3.14,10.9-8.78,6.19-21.7-2.44-26a31.48,31.48,0,0,0-9.6-3.42c-2.44-.3-4.87-.6-7.16-.75a39.64,39.64,0,0,0-11.06.9,4.67,4.67,0,0,0-3.91,3.6,13.89,13.89,0,0,0-.32,4.47c.17,3,.48,6,.65,9.1.32,6.68.48,13.58,1,20.29.48,7.46,1.3,14.92,2.12,22.38a55.94,55.94,0,0,0,1.47,7.16,5.56,5.56,0,0,0,4.36,4,8.93,8.93,0,0,0,2.12.3,58.79,58.79,0,0,0,10.25-.15A103.47,103.47,0,0,0,112.26,286a19.34,19.34,0,0,0,9.11-5,12,12,0,0,0,3.6-6.11,14.87,14.87,0,0,0-1.8-11.2,26.39,26.39,0,0,0-17.09-12.23C105.15,251.09,104.45,250.94,103.63,250.64Zm115,117.89c.48.15.65.15.82.3,4.72,2.54,9.43,4.92,14,7.76a167.17,167.17,0,0,0,25.23,13.72,27,27,0,0,0,3.74,1.34c3.91.9,6.68-1.34,6.51-4.92a10.58,10.58,0,0,0-1-3.72,44.86,44.86,0,0,0-3.34-6.11C257,364.36,248,352.56,239.08,340.63c-.17-.3-.48-.45-.65-.75a1.67,1.67,0,0,0-.82-.6,2.9,2.9,0,0,0-3.09-.3,2.22,2.22,0,0,0-1.67,2.4,5.17,5.17,0,0,0,.65,2.24,47.37,47.37,0,0,0,3.09,4.62c5.39,7.91,10.9,15.82,16.27,23.73,2.29,3.34,4.39,6.68,6.51,10a3.55,3.55,0,0,1,.65,1.34c-.32,0-.48,0-.65-.15a169.53,169.53,0,0,1-22-12.58c-4.87-3.42-9.76-6.86-14.64-10.15-1.3-.9-2.6-1.8-3.91-2.54a7.46,7.46,0,0,0-6.17-.75l-7,2.24a18.36,18.36,0,0,0-2.44,1.2,5.16,5.16,0,0,0-2.77,5.82,45.06,45.06,0,0,0,1.13,4.47c2.92,8.21,5.86,16.42,8.95,24.62,2.12,5.52,4.56,10.75,6.84,16.12a20.86,20.86,0,0,0,2.44,4,4.61,4.61,0,0,0,5,1.8c1.47-.3,3.09-.45,4.56-.9a24.87,24.87,0,0,0,4.72-1.67,5,5,0,0,0,2.75-6.52q-.07-.17-.15-.34a5.09,5.09,0,0,0-.65-1.34c-4.22-9.25-8.63-18.51-12.85-27.75C221.74,375.24,220.31,372,218.64,368.53Zm-117,6.68a7.19,7.19,0,0,1,1,.3A23.46,23.46,0,0,0,117.9,377c6.17-1.49,11.23-4.47,14-10a21.35,21.35,0,0,0,0-18.36,31.08,31.08,0,0,0-14.8-15.37,5.24,5.24,0,0,0-6.17.45,37.67,37.67,0,0,0-3.74,3.34c-4.72,4.79-9.43,9.4-14.15,14.32-7.79,8.06-15.59,16.27-23.26,24.47A23.36,23.36,0,0,0,67,379.55a3.94,3.94,0,0,0,1,5.39L70.27,387a3.84,3.84,0,0,0,5.42.26l.12-.11a24,24,0,0,0,2.92-2.69c4.56-4.47,8.95-9.1,13.5-13.58l1.13-1.05c.17.45.17.6.32.75.32,2.4.82,4.79,1,7.31,1.13,9.4,2.92,18.81,4.72,28.19a7.94,7.94,0,0,0,.65,1.8,3.05,3.05,0,0,0,3.09,1.34,2.54,2.54,0,0,0,2.44-1.94,10.38,10.38,0,0,0,.17-2.24c-.32-2.4-.82-4.79-1.13-7-.82-5.82-1.67-11.78-2.44-17.61-.18-2-.33-3.47-.5-5.26Zm210.88-30.29a42.39,42.39,0,0,0-2.44-11.78,43.12,43.12,0,0,0-13.82-19.69,30.42,30.42,0,0,0-34.48-1.8l-3.34,2.09a19.79,19.79,0,0,0-6.68,6.24,22.11,22.11,0,0,0-3.1,8.18,3,3,0,0,0,1,3.14c1.8,1.34,3.34,2.84,5.21,4.19,5.54,4,11.06,7.91,16.44,11.93a229.37,229.37,0,0,0,23.26,14.77,43.56,43.56,0,0,0,6,2.84,5,5,0,0,0,6.68-1.8A18,18,0,0,0,311,355.6ZM176.75,314.26c-.82-.9-1.3-1.8-2-2.54a18.06,18.06,0,0,0-9.28-6c-6.68-1.67-12.68,1.8-13.82,7.91a12.25,12.25,0,0,0,.48,6.41A39.7,39.7,0,0,0,167.77,342a26.2,26.2,0,0,0,5,2.69,11.4,11.4,0,0,0,10.9-1.67l5-3.6a34.78,34.78,0,0,0,12.2-15.22,15.32,15.32,0,0,0,.65-10.75c-2.29-6.86-9.6-9.7-16.59-6.41a21.36,21.36,0,0,0-6.68,5,18.18,18.18,0,0,1-1.67,2.09ZM220.46,278c-.32-2.24-.65-4.47-1.13-6.68a47.28,47.28,0,0,0-8.78-17.16,179.79,179.79,0,0,0-14.8-16.42l-6.34-6.26a5.72,5.72,0,0,1-1.67-3.42,5,5,0,0,1,5.21-5.52,16.14,16.14,0,0,1,7.48,1.8,5.86,5.86,0,0,0,2.77.75c1.67,0,2.44-1.2,1.8-2.54a14.17,14.17,0,0,0-1.47-1.8,16.32,16.32,0,0,0-8.95-4.19,15.82,15.82,0,0,0-13.82,3,17.76,17.76,0,0,0-6.51,15.37,22.26,22.26,0,0,0,5.21,11.93,55.63,55.63,0,0,0,8.14,8.06c4.07,3.6,8.34,7,12.37,10.75a60.08,60.08,0,0,1,6.17,6.41,20.24,20.24,0,0,1,3.6,6.68,5.56,5.56,0,0,1-1.67,6,7.44,7.44,0,0,1-7,1.94,13.89,13.89,0,0,1-7-3.87,23.73,23.73,0,0,1-2.6-3,14.52,14.52,0,0,0-2.29-2.09,2.89,2.89,0,0,0-3.34,0,2.82,2.82,0,0,0-1.13,3,8.85,8.85,0,0,0,1.13,2.09c1.67,1.94,3.34,3.87,5,5.67a18.84,18.84,0,0,0,18.06,4.92,14.39,14.39,0,0,0,8.63-5.52,20.33,20.33,0,0,0,2.89-9.9Zm9.29-57.28a43,43,0,0,0,.17,4.62c.32,4,.8,8.06,1,12.08.32,6.41.32,12.68.48,19.11.17,7.31.32,14.47.65,21.8a85.78,85.78,0,0,0,1.13,9.25A5.57,5.57,0,0,0,238,292.5a33.88,33.88,0,0,0,5.47.45,3.91,3.91,0,0,0,4-3.34,30.27,30.27,0,0,0,.48-5.39c0-6.11-.32-12.23-.32-18.51,0-11.35.32-22.53.48-33.88V220.16c.48,0,.8-.15,1.13-.15H256a2.72,2.72,0,0,0,.63-5.39,10.66,10.66,0,0,0-2.25-.15c-3.87-.15-7.71-.15-11.6-.3a108.13,108.13,0,0,0-17.07.75,36.6,36.6,0,0,0-5.47,1.34,2.15,2.15,0,0,0-1.67,2.4,2.39,2.39,0,0,0,2.25,1.67,42.34,42.34,0,0,0,4.36.15,43.86,43.86,0,0,0,4.51.17Zm-81.37,2.65c.48,0,1-.15,1.3,0,2.29.15,4.56.45,6.68.6a28.94,28.94,0,0,0,3.6.3,2.12,2.12,0,0,0,2.12-1.2,1.67,1.67,0,0,0-.65-2.09,4,4,0,0,0-1.8-.9,55.82,55.82,0,0,0-20.49-2.84,14,14,0,0,0-2.44.45A4.54,4.54,0,0,0,133,221c-.32,2.09-.82,4-1,6.11a209.41,209.41,0,0,0,0,24.77c.32,6.68,1,13.58,1.67,20.29.32,2.84.65,5.82,1,8.66a8.11,8.11,0,0,0,3.09,5.52,11.68,11.68,0,0,0,5.54,2.09,57.11,57.11,0,0,0,15.94-.6,2.19,2.19,0,0,0,2.2-2.4c0-1.2-.82-2.09-2.29-2.54a10.41,10.41,0,0,0-2.29-.3c-2.29-.15-4.39-.45-6.84-.6-1-8.34-1.13-16.69-1.47-25h2.12c2.92-.15,5.86-.15,8.63-.3a2.85,2.85,0,0,0,2.77-2.4c0-1.34-1-2.24-2.77-2.24-3.09-.3-6.17-.45-9.11-.75a6.24,6.24,0,0,1-1.67-.3c.32-9.41,0-18.36-.17-27.62ZM175.24,400h2.4l9-.45a3.19,3.19,0,0,0,2.94-2c1-2.1-.5-4.23-3.31-4.36A56.84,56.84,0,0,0,175,393.1,282.79,282.79,0,0,1,176.8,362h2c1.79,0,3.4,0,5.19-.15a4.77,4.77,0,0,0,3.32-1.19c1.13-1.19,1-2.39-.48-3.12a7.33,7.33,0,0,0-3.08-.9c-5.52-.6-11.17.15-16.69,0a1.31,1.31,0,0,0-.81.15,3.86,3.86,0,0,0-3.73,3.86,51.28,51.28,0,0,1-.81,7,215,215,0,0,0-2.59,30.62c0,3.32-.17,6.38-.31,9.66,0,2.52-.17,5-.17,7.58.17,3.71,2.59,6.08,6.63,6.38a15.1,15.1,0,0,0,2.59,0c7.94-.15,16-.45,24-.6a14.92,14.92,0,0,0,3.58-.6,2.45,2.45,0,0,0,1.94-3.32c-.31-1.94-1.79-2.82-4.21-2.82l-16.36.45h-1.68C175.53,410,174.89,405.07,175.24,400ZM87,314.21c.48.6.82,1.05,1.13,1.49a125.42,125.42,0,0,0,13,11.2,12.88,12.88,0,0,0,2.44,1.49,2.15,2.15,0,0,0,2.29-.45,2,2,0,0,0,.65-2.24,3.05,3.05,0,0,0-1-1.49,123.8,123.8,0,0,0-9.91-10.36L90,308.62l-6.53-6.07a3.59,3.59,0,0,0-4.72-.45c-1.13.75-2.44,1.49-3.6,2.24-4.72,3.34-9.6,6.68-14.32,10.15-6.17,4.79-12.37,9.55-18.36,14.47-3.24,2.57-6.33,5.11-9.45,7.79-2.6,2.24-3,4.34-1.29,7.14.82,1.2,1.67,2.4,2.6,3.6a4.29,4.29,0,0,0,6,.9c1.3-.75,2.44-1.49,3.74-2.4,5.54-3.87,10.9-7.91,16.44-11.78a9,9,0,0,1,1.3-.9,8.34,8.34,0,0,0,1,1.2c1.8,2.09,3.34,4.32,5.21,6.41a7.43,7.43,0,0,0,1.67,1.49,2.9,2.9,0,0,0,3.34-.3,2.32,2.32,0,0,0,.48-2.84l-1-1.34-5.39-6.68a8.34,8.34,0,0,1-.82-1.2C72.87,325,79.88,319.73,87,314.21Zm70,45.63c0-2.24-.48-3.72-2.12-4.62a18.54,18.54,0,0,0-6.16-1.9,3.79,3.79,0,0,0-3.91,2.09,25.57,25.57,0,0,0-1.3,3.14c-1.3,4.47-2.77,8.8-3.91,13.35-3.34,12.53-6.68,25-9.11,37.77-.32,2.09-.82,4-1.13,6.11a5,5,0,0,0,3.34,5.52,17.57,17.57,0,0,0,5.54,1.34,4.19,4.19,0,0,0,4.22-2.24,19,19,0,0,0,1.07-2.74c1.67-6,3.6-11.78,4.87-17.76,2.6-11.35,5-22.68,7.64-33.88.28-2.25.62-4.49.93-6.16Z"/><path class="cls-1" d="M93.7,281.23c-1.13-8.06-1.47-16.12-1.8-24.18a19.64,19.64,0,0,1,7.79,0,24.3,24.3,0,0,1,9.93,4.32A15.44,15.44,0,0,1,116.83,272a5,5,0,0,1-2.32,5.14,31,31,0,0,1-3.09,1.67,35.46,35.46,0,0,1-17.24,2.54A.75.75,0,0,0,93.7,281.23Z"/><path class="cls-1" d="M91.43,250.42c-.32-8.95-.82-17.61-1.13-26.42a12.52,12.52,0,0,1,6.17-.3,15.85,15.85,0,0,1,11.06,6.86,9.43,9.43,0,0,1-.65,11.68,15.29,15.29,0,0,1-5.52,4.32c-2.92,1.2-5.69,2.4-8.63,3.6A7.88,7.88,0,0,0,91.43,250.42Z"/><path class="cls-1" d="M120.39,344.8c3.91,4.19,7,8.51,7.33,14.32a10.91,10.91,0,0,1-9.43,10.75,19,19,0,0,1-15-3.34c-1-.75-1.8-1.67-2.92-2.69C106.82,357.48,113.5,351.22,120.39,344.8Z"/><path class="cls-1" d="M260.36,320.63a18.16,18.16,0,0,1,13.18-7.31,25.47,25.47,0,0,1,14.8,2.54,19.64,19.64,0,0,1,5.39,4,39,39,0,0,1,11.18,22.33,13,13,0,0,1-.32,6.11C289.1,339.88,274.94,330,260.36,320.63Z"/></g></g></g></svg>