<svg xmlns="http://www.w3.org/2000/svg" viewBox="0 0 255.84 283.34"><defs><style>.cls-1{fill:#6f4436;}.cls-2{fill:#936037;}</style></defs><title>資產 1</title><g id="圖層_2" data-name="圖層 2"><g id="圖層_1-2" data-name="圖層 1"><path class="cls-1" d="M13.63,269.9H197.52s-16.25,11.94-42.75,13-103.52,0-103.52,0S28.17,282.09,13.63,269.9Z"/><path class="cls-1" d="M12.29,94c0-8,2.43-14.43,7.3-19.76,1-1,1.83-2.1,2.92-3.09a30,30,0,0,0,6.83-10.86,35.14,35.14,0,0,0,2.3-10,22.32,22.32,0,0,0-1.34-8.51,41.11,41.11,0,0,0-4-8,20.05,20.05,0,0,1-1.21-2.22,2.51,2.51,0,0,1,.24-2.59,2.66,2.66,0,0,1,2.31-.74c6,.62,10.58,3.83,14.35,8.14a21.61,21.61,0,0,1,5,11c1.46,8.39-.61,16-5.11,23.07A45.4,45.4,0,0,1,34.42,79c-1.95,1.73-4,3.46-5.84,5.31A39.68,39.68,0,0,0,24.21,89a21.56,21.56,0,0,0-4.38,15.05c.12,1,.36,2,.48,3,0,.36.12.62.12,1a1.44,1.44,0,0,1-1,1.36,1.48,1.48,0,0,1-1.58-.25l-.48-.49C14.12,104.07,12,99,12.29,94Z"/><path class="cls-1" d="M0,77.42A15.84,15.84,0,0,1,2.93,67.8a54.38,54.38,0,0,1,3.53-4.31c1.08-1.36,2.43-2.59,3.53-4a27.61,27.61,0,0,0,2.43-3.7,10.3,10.3,0,0,0,1-8.62,22.45,22.45,0,0,0-1-2.59,4,4,0,0,1-.36-1.11A1.89,1.89,0,0,1,13.88,41a5.61,5.61,0,0,1,2.07.36,9.8,9.8,0,0,1,3.16,2.22,16.55,16.55,0,0,1,4.25,9.49,12.64,12.64,0,0,1-3.89,10.36,32.09,32.09,0,0,1-3.89,3.09,42.1,42.1,0,0,0-5.11,4.2C6.34,75.07,5.36,80.14,6.7,85.81c.12.49.36,1,.48,1.48a1.6,1.6,0,0,1-.61,1.85,1.31,1.31,0,0,1-1.83,0,4.22,4.22,0,0,1-1.46-1.47A16,16,0,0,1,.37,80,11.94,11.94,0,0,1,0,77.42Z"/><path class="cls-1" d="M203.19,73.52a21.17,21.17,0,0,0,5.75,15.2c.77.76,1.44,1.62,2.3,2.37a23,23,0,0,1,5.39,8.36,26.52,26.52,0,0,1,1.81,7.7,16.81,16.81,0,0,1-1.06,6.56,31.36,31.36,0,0,1-3.17,6.18,15.33,15.33,0,0,0-1,1.71,1.89,1.89,0,0,0,.19,2,2.14,2.14,0,0,0,1.83.57c4.7-.47,8.35-2.95,11.33-6.27a16.59,16.59,0,0,0,4-8.46c1.15-6.47-.48-12.35-4-17.77A35.21,35.21,0,0,0,220.66,85c-1.53-1.33-3.17-2.66-4.61-4.08a30.9,30.9,0,0,1-3.46-3.61,16.34,16.34,0,0,1-3.46-11.59c.1-.76.29-1.52.38-2.28,0-.28.1-.47.1-.76a1.11,1.11,0,0,0-.77-1,1.19,1.19,0,0,0-1.25.19l-.38.38C204.63,65.63,203,69.53,203.19,73.52Z"/><path class="cls-1" d="M193.49,86.25a12,12,0,0,0,2.3,7.41c.86,1.14,1.83,2.28,2.78,3.33s1.92,2,2.78,3a21.22,21.22,0,0,1,1.92,2.85,7.76,7.76,0,0,1,.79,6.65,17,17,0,0,1-.77,2,3,3,0,0,0-.29.86,1.46,1.46,0,0,0,1.44,1.9,4.52,4.52,0,0,0,1.63-.28,7.74,7.74,0,0,0,2.5-1.71,12.6,12.6,0,0,0,3.36-7.32,9.63,9.63,0,0,0-3.07-8,26.12,26.12,0,0,0-3.07-2.37,33.2,33.2,0,0,1-4-3.23c-3.26-3.33-4-7.22-3-11.59.1-.38.29-.76.38-1.14a1.21,1.21,0,0,0-.48-1.44,1,1,0,0,0-1.44,0,3.29,3.29,0,0,0-1.15,1.14,12.09,12.09,0,0,0-2.3,5.89A9,9,0,0,0,193.49,86.25Z"/><path class="cls-2" d="M181.33,23.54c.3-.28.56-.52.82-.77A11.84,11.84,0,0,1,190,19.43a57.91,57.91,0,0,1,8,.41c.66.05,1.3.14,2,.14s1,.33,1,.8a.79.79,0,0,1-.78.79h-.08c-.41,0-.82,0-1.23,0l-9-.14a9.18,9.18,0,0,0-7.54,3.65,1.62,1.62,0,0,0-.36,1.57,29,29,0,0,1-.13,15.69,22.44,22.44,0,0,1-3.23,6.39c.48.26.91.05,1.33,0a41,41,0,0,1,10.58-.36A22.13,22.13,0,0,1,200,51.71c1.15.72,2.35,1.39,3.55,2.05a7.86,7.86,0,0,0,3.27,1,2.29,2.29,0,0,0,2.46-1.33,4.7,4.7,0,0,0,.45-2.55,10.68,10.68,0,0,0-4-7.34,6.55,6.55,0,0,0-7.75-.64c-.72.39-1.38.83-2,1.28a2,2,0,0,0-.88,1,1.21,1.21,0,0,1-1.56.73h0a1.15,1.15,0,0,1-.76-1.57,2.37,2.37,0,0,1,.54-.87,16,16,0,0,1,4.18-3.15c2.67-1.38,5.31-1,7.9.25a8.29,8.29,0,0,1,2.39,1.77,13.29,13.29,0,0,1,3.69,9.7,4.44,4.44,0,0,1-.66,2.16,4.59,4.59,0,0,1-4.33,2.33A12.15,12.15,0,0,1,201.21,55c-1.12-.55-2.21-1.17-3.28-1.8a18.76,18.76,0,0,0-9.34-2.6,60.76,60.76,0,0,0-12,1,2.41,2.41,0,0,0-1.22.47,22.61,22.61,0,0,1-6.73,3.74,11.83,11.83,0,0,1-1.85.63,3.13,3.13,0,0,0-2.45,2.14c-.52,1.31-1.16,2.58-1.71,3.88a13.84,13.84,0,0,0-.62,3.34c-.05.3.15.49.36.69,3.1,3,4.19,6.77,4.92,10.68.08.45.15.9.25,1.34a.84.84,0,0,1-.36,1,1.19,1.19,0,0,0-.67,1.18,1.64,1.64,0,0,1-1.31,1.6,2.2,2.2,0,0,1-2.21-.94,6.47,6.47,0,0,1-.76-1.67,57,57,0,0,0-5-11.91,2.87,2.87,0,0,0-1.15-1,80.66,80.66,0,0,0-8.5-4.36c-2.36-1.16-4.82-2.12-7.26-3.14-2.73-1.14-5.45-2.32-8.16-3.5a27.48,27.48,0,0,1-4.86-2.21,1.11,1.11,0,0,0-.59-.13c-4.57-.06-9.15-.27-13.67.46-1.85.3-3.74.46-5.58.86a1.76,1.76,0,0,1-2.08-1.38l0-.09c-.15-1.62,0-1.89,1.78-2.46a30.81,30.81,0,0,1,8.14-1.19A91.07,91.07,0,0,1,125,49.6c.69,0,.94-.18,1-.78.31-1.95.91-3.84,1.33-5.75.29-1.29.43-2.62.64-3.92a3.13,3.13,0,0,1,.19-.89c.72-1.44.07-2.73-.72-3.83a19.5,19.5,0,0,0-6.74-6.07,8.37,8.37,0,0,0-5.55-1.08,5,5,0,0,0-4.25,3.8,8.37,8.37,0,0,0,1.24,6.76,2.85,2.85,0,0,0,.36.46,1,1,0,0,0,1.65,0c.59-.58,1.1-1.13,1.65-1.69a1.91,1.91,0,0,1,1.67-.56,1,1,0,0,1,.93.64.72.72,0,0,1-.37.94l0,0c-.58.26-.78.75-1.08,1.19a5,5,0,0,1-2.14,2,4,4,0,0,1-4.42-.83c-2.79-2.68-4.36-8-1.69-12a8.83,8.83,0,0,1,8.8-3.61,14.88,14.88,0,0,1,7.62,3.73,3.68,3.68,0,0,0,1.23.87c-.74-4.53-.53-8.88,2-12.89a24.86,24.86,0,0,1,10.47-8.91A5.86,5.86,0,0,0,136.53,5a20.39,20.39,0,0,0-7-2.47c-1.57-.31-3.16-.55-4.74-.83a6.79,6.79,0,0,1-.72-.14.75.75,0,0,1-.64-.84h0a.8.8,0,0,1,.87-.73h.07c.57,0,1.15.09,1.72.17a41.82,41.82,0,0,1,7.75,1.36c2.65.87,5.07,2,6.66,4.26.32.45.61.36,1,.18A37.55,37.55,0,0,1,150,3.63a27.52,27.52,0,0,1,9.1-.11,26.34,26.34,0,0,1,16,9.17,32.31,32.31,0,0,1,5.81,10.19A1,1,0,0,0,181.33,23.54Zm-47.55-10a.52.52,0,0,0-.5.19,13.78,13.78,0,0,0-4.65,9.5,28.22,28.22,0,0,0,2.64,12.13,1.42,1.42,0,0,0,1.15.89c1,.21,2.09.44,3.11.72a59,59,0,0,1,10.55,4.37c3.39,1.71,6.55,3.63,9.8,5.49a54.36,54.36,0,0,1,9.55,6.4c.32.29.56.18.87,0a31.45,31.45,0,0,1,3.2-1.47,8.8,8.8,0,0,0,4.13-3.11,20.36,20.36,0,0,0,4-12,37.72,37.72,0,0,0-.45-6.89,43.11,43.11,0,0,0-1.65-7.31,1.28,1.28,0,0,0-1.18-1,5.39,5.39,0,0,0-3.46.52,10.06,10.06,0,0,0-4.76,5.31,2.11,2.11,0,0,0,.32,2.54.84.84,0,0,1-.1,1.25,1.16,1.16,0,0,1-1.36.18,1.76,1.76,0,0,1-.83-.8,3.82,3.82,0,0,1-.47-2.2c.1-2.41,1.44-4.31,3.13-6a9.33,9.33,0,0,1,6.89-3.08,1.08,1.08,0,0,0,.33-.11C169.15,7,155.57,2.55,142.93,8.08c.16.08.29.16.44.22a8,8,0,0,1,5.26,6.13,6,6,0,0,1-3.23,6.68,4.53,4.53,0,0,1-3.2.51c-.54-.14-1-.41-1-1s.47-.83,1.08-.87a3.91,3.91,0,0,0,.61-.1,4,4,0,0,0,3.36-3.5,5.66,5.66,0,0,0-2.05-4.91,3.34,3.34,0,0,0-1.82-.93c.08,1,.19,1.82.22,2.68a7.24,7.24,0,0,1-2.48,6.06,3.49,3.49,0,0,1-5.23-.48,5.58,5.58,0,0,1-1.15-3.64C133.73,14.46,133.76,14,133.78,13.52Zm6.47.78a10.3,10.3,0,0,0,0-3.59c-.08-.52-.36-.59-.84-.4-2.55,1-3.84,4.47-2.4,6.63.57.87,1.08.92,1.83.18A5.27,5.27,0,0,0,140.25,14.3Z"/><path class="cls-1" d="M84.89,91.32a23.81,23.81,0,0,1-1.65-4.67c-.76-2.8-1.46-5.6-2.22-8.33-.57-2.13-1.27-4.2-2-6.27a38.37,38.37,0,0,0-2.73-6.47A25.74,25.74,0,0,0,74.08,62a7.54,7.54,0,0,1-1.14-2.27,1.59,1.59,0,0,1,.83-2.13,3.62,3.62,0,0,1,1.59-.47,13.89,13.89,0,0,1,6,.67,11.73,11.73,0,0,1,1.59.72,33.6,33.6,0,0,1,6.11,4,22.27,22.27,0,0,1,4.2,5,34.77,34.77,0,0,1,2.71,4.74,32.71,32.71,0,0,1,1.91,6.47l.57,3.4a31.25,31.25,0,0,1,.4,4.2,25,25,0,0,1-1.08,7.46,13.68,13.68,0,0,1-1.65,3.54,3.72,3.72,0,0,1-5.28,1.33A12.29,12.29,0,0,1,87.87,96,24.41,24.41,0,0,1,84.89,91.32Z"/><path class="cls-1" d="M75,65.65a77.7,77.7,0,0,1,3.31,9c1,3.33,2,6.6,3,9.87L83,89.9a21.52,21.52,0,0,0,3,5.93c.51.72,1,1.53,1.53,2.34a3.59,3.59,0,0,1,.38,1.08,1.38,1.38,0,0,1-.89,1.53,3.14,3.14,0,0,1-.7.13,6.65,6.65,0,0,1-2.8-.4,29.49,29.49,0,0,1-10.3-6.2,27.84,27.84,0,0,1-4.13-4.6,20.8,20.8,0,0,1-2.54-5.07,41.93,41.93,0,0,1-1.65-6.33,19.76,19.76,0,0,1-.26-5.47c.19-1.6.38-3.27.64-4.87a21.62,21.62,0,0,1,2.16-5.87,2.72,2.72,0,0,1,4.39-.87A11.4,11.4,0,0,1,74,64C74.33,64.51,74.65,65.18,75,65.65Z"/><path class="cls-1" d="M127.15,106.21a17.2,17.2,0,0,0,1.18-3.1c.56-1.83,1-3.65,1.56-5.48.43-1.4.93-2.8,1.37-4.14a29.38,29.38,0,0,1,1.92-4.26,15.83,15.83,0,0,1,1.54-2.37,5.21,5.21,0,0,0,.8-1.52,1,1,0,0,0-.54-1.4,2.49,2.49,0,0,0-1.1-.31,9.64,9.64,0,0,0-4.15.46,8.65,8.65,0,0,0-1.1.48,21.24,21.24,0,0,0-4.22,2.6,21.47,21.47,0,0,0-4.86,6.43,17.24,17.24,0,0,0-1.31,4.26c-.13.72-.32,1.52-.44,2.25a13.9,13.9,0,0,0-.26,2.74,17,17,0,0,0,.76,4.94,8.59,8.59,0,0,0,1.14,2.38,2.66,2.66,0,0,0,3.65.87,7.7,7.7,0,0,0,2-1.7A19.76,19.76,0,0,0,127.15,106.21Z"/><path class="cls-1" d="M134.16,89.31a47.73,47.73,0,0,0-2.3,6c-.69,2.19-1.37,4.38-2.12,6.51-.36,1.22-.81,2.37-1.24,3.53a14.16,14.16,0,0,1-2.1,3.89c-.36.48-.74,1-1,1.52a2.58,2.58,0,0,0-.25.72.84.84,0,0,0,.6,1,1.34,1.34,0,0,0,.49.06,7.15,7.15,0,0,0,2-.23,20.21,20.21,0,0,0,7.16-4,17,17,0,0,0,2.87-3,13.57,13.57,0,0,0,1.8-3.34,24.63,24.63,0,0,0,1.19-4.14,14.73,14.73,0,0,0,.21-3.66c-.11-1.1-.23-2.13-.41-3.23A12.33,12.33,0,0,0,139.48,87a2,2,0,0,0-3-.63,8.38,8.38,0,0,0-1.54,1.76A9.22,9.22,0,0,0,134.16,89.31Z"/><path class="cls-1" d="M189.11,221.53a6.36,6.36,0,0,1-.59.82,152.14,152.14,0,0,1-10,13.06,76.74,76.74,0,0,1-40.55,23.86,139.48,139.48,0,0,1-17.06,2.92,127.32,127.32,0,0,1-18.62.45,124.45,124.45,0,0,1-18.32-2.09,95.57,95.57,0,0,1-19.2-6,104.19,104.19,0,0,1-22.81-13.25,101.87,101.87,0,0,1-16.17-15.79,170,170,0,0,1-12.87-17.06A78.89,78.89,0,0,1,2,181.53,89.8,89.8,0,0,1,.19,157a107.92,107.92,0,0,1,2-17.69q.95-4.5,2.34-8.89a17.81,17.81,0,0,1,2.73-5.17,9.23,9.23,0,0,1,4.88-3.45,33.57,33.57,0,0,1,7.9-1.46c3.7-.27,7.41-.45,11.11-.63a22.68,22.68,0,0,1,3.51.09c.59,0,1.27.09,1.85.09l18.91-.27L69,119.35c5.46-.18,10.92-.27,16.37-.54,9.06-.36,18.13-.45,27.1-.45,7.21,0,14.52-.09,21.74.09,5.85.09,11.6.36,17.45.54,3.7.09,7.5.27,11.21.45,7,.36,13.94.82,21,1.36a62.84,62.84,0,0,1,9.93,1.58,17,17,0,0,1,10.92,7.89c.88,1.46,1.56,3,2.34,4.63h.49a41.81,41.81,0,0,1,33.14,8.89A39,39,0,0,1,255,167.2a46.93,46.93,0,0,1,.49,14.79,55.62,55.62,0,0,1-4.19,16.22,49,49,0,0,1-13.55,18.15,46.85,46.85,0,0,1-29.24,9.52,52.7,52.7,0,0,1-18.72-4.08A5,5,0,0,0,189.11,221.53Zm7.79-15.78a3.36,3.36,0,0,1,.59.27,31.69,31.69,0,0,0,17.06,1.61c5.17-1.08,9.65-3.13,13.16-6.8a34,34,0,0,0,7.7-12.61,38.72,38.72,0,0,0,2.16-10.91,24.67,24.67,0,0,0-3.32-15q-6.44-10.73-19.89-11.81a18.56,18.56,0,0,0-5.85.54c-.1,1.16-.1,2.32-.19,3.4-.29,3.4-.49,6.88-1,10.28-.88,6.08-2,12.07-3,18.06a78.11,78.11,0,0,1-5.86,19.15,39,39,0,0,1-1.56,3.83ZM62.09,150.13c1.08-.72,2-1.25,2.83-1.88,6.53-5.26,3.71-13-1.46-15.56a18.86,18.86,0,0,0-5.75-2.05c-1.46-.18-2.92-.36-4.29-.45a23.75,23.75,0,0,0-6.63.54,2.8,2.8,0,0,0-2.34,2.16,8.32,8.32,0,0,0-.19,2.68c.1,1.8.29,3.59.39,5.45.19,4,.29,8.14.59,12.16.29,4.47.78,8.94,1.27,13.41a33.52,33.52,0,0,0,.88,4.29A3.33,3.33,0,0,0,50,173.3a5.35,5.35,0,0,0,1.27.18,35.23,35.23,0,0,0,6.14-.09,62,62,0,0,0,9.85-2.05,11.59,11.59,0,0,0,5.46-3,7.19,7.19,0,0,0,2.16-3.66,8.91,8.91,0,0,0-1.08-6.71,15.81,15.81,0,0,0-10.24-7.33C63,150.4,62.58,150.31,62.09,150.13ZM131,220.77c.29.09.39.09.49.18,2.83,1.52,5.65,2.95,8.39,4.65A100.17,100.17,0,0,0,155,233.82a16.17,16.17,0,0,0,2.24.8c2.34.54,4-.8,3.9-2.95a6.34,6.34,0,0,0-.59-2.23,26.88,26.88,0,0,0-2-3.66c-4.58-7.51-9.94-14.58-15.3-21.73-.1-.18-.29-.27-.39-.45a1,1,0,0,0-.49-.36,1.74,1.74,0,0,0-1.85-.18,1.33,1.33,0,0,0-1,1.44,3.1,3.1,0,0,0,.39,1.34,28.38,28.38,0,0,0,1.85,2.77c3.23,4.74,6.53,9.48,9.75,14.22,1.37,2,2.63,4,3.9,6a2.13,2.13,0,0,1,.39.8c-.19,0-.29,0-.39-.09A101.58,101.58,0,0,1,142.22,222c-2.92-2.05-5.85-4.11-8.77-6.08-.78-.54-1.56-1.08-2.34-1.52a4.47,4.47,0,0,0-3.7-.45l-4.19,1.34a11,11,0,0,0-1.46.72,3.09,3.09,0,0,0-1.66,3.49,27,27,0,0,0,.68,2.68c1.75,4.92,3.51,9.84,5.36,14.75,1.27,3.31,2.73,6.44,4.1,9.66a12.5,12.5,0,0,0,1.46,2.41,2.76,2.76,0,0,0,3,1.08c.88-.18,1.85-.27,2.73-.54a14.9,14.9,0,0,0,2.83-1,3,3,0,0,0,1.56-4.11,3.05,3.05,0,0,0-.39-.8c-2.53-5.54-5.17-11.09-7.7-16.63C132.86,224.79,132,222.83,131,220.77Zm-70.11,4a4.31,4.31,0,0,1,.59.18,14.06,14.06,0,0,0,9.16.89c3.7-.89,6.73-2.68,8.39-6a12.79,12.79,0,0,0,0-11,18.62,18.62,0,0,0-8.87-9.21,3.14,3.14,0,0,0-3.7.27,22.57,22.57,0,0,0-2.24,2c-2.83,2.87-5.65,5.63-8.48,8.58-4.67,4.83-9.34,9.75-13.94,14.66a14,14,0,0,0-1.66,2.23,2.36,2.36,0,0,0,.59,3.23l1.37,1.25a2.3,2.3,0,0,0,3.32.09,14.38,14.38,0,0,0,1.75-1.61c2.73-2.68,5.36-5.45,8.09-8.14l.68-.63c.1.27.1.36.19.45.19,1.44.49,2.87.59,4.38.68,5.63,1.75,11.27,2.83,16.89a4.76,4.76,0,0,0,.39,1.08,1.83,1.83,0,0,0,1.85.8,1.52,1.52,0,0,0,1.46-1.16,6.22,6.22,0,0,0,.1-1.34c-.19-1.44-.49-2.87-.68-4.2-.49-3.49-1-7.06-1.46-10.55-.11-1.19-.2-2.08-.3-3.15Zm126.36-18.15a25.4,25.4,0,0,0-1.46-7.06,25.84,25.84,0,0,0-8.28-11.8,18.23,18.23,0,0,0-20.66-1.08l-2,1.25a11.86,11.86,0,0,0-4,3.74,13.25,13.25,0,0,0-1.86,4.9,1.82,1.82,0,0,0,.59,1.88c1.08.8,2,1.7,3.12,2.51,3.32,2.41,6.63,4.74,9.85,7.15a137.44,137.44,0,0,0,13.94,8.85,26.1,26.1,0,0,0,3.59,1.7,3,3,0,0,0,4-1.08,10.78,10.78,0,0,0,2.24-4.56ZM105.9,188.25c-.49-.54-.78-1.08-1.17-1.52a10.82,10.82,0,0,0-5.56-3.59c-4-1-7.6,1.08-8.28,4.74a7.34,7.34,0,0,0,.29,3.84,23.79,23.79,0,0,0,9.34,13.15,15.7,15.7,0,0,0,3,1.61,6.83,6.83,0,0,0,6.53-1c1-.72,2-1.44,3-2.16a20.84,20.84,0,0,0,7.31-9.12,9.18,9.18,0,0,0,.39-6.44c-1.37-4.11-5.75-5.81-9.94-3.84a12.8,12.8,0,0,0-4,3,10.89,10.89,0,0,1-1,1.25Zm26.19-21.56c-.19-1.34-.39-2.68-.68-4a28.33,28.33,0,0,0-5.26-10.28,107.73,107.73,0,0,0-8.87-9.84l-3.8-3.75a3.43,3.43,0,0,1-1-2.05,3,3,0,0,1,3.12-3.31,9.67,9.67,0,0,1,4.48,1.08,3.51,3.51,0,0,0,1.66.45c1,0,1.46-.72,1.08-1.52a8.49,8.49,0,0,0-.88-1.08,9.78,9.78,0,0,0-5.36-2.51,9.48,9.48,0,0,0-8.28,1.8,10.64,10.64,0,0,0-3.9,9.21,13.34,13.34,0,0,0,3.12,7.15,33.33,33.33,0,0,0,4.88,4.83c2.44,2.16,5,4.2,7.41,6.44a36,36,0,0,1,3.7,3.84,12.13,12.13,0,0,1,2.16,4,3.33,3.33,0,0,1-1,3.59,4.46,4.46,0,0,1-4.19,1.16,8.32,8.32,0,0,1-4.19-2.32,14.22,14.22,0,0,1-1.56-1.8,8.7,8.7,0,0,0-1.37-1.25,1.73,1.73,0,0,0-2,0,1.69,1.69,0,0,0-.68,1.8,5.3,5.3,0,0,0,.68,1.25c1,1.16,2,2.32,3,3.4a11.29,11.29,0,0,0,10.82,2.95,8.62,8.62,0,0,0,5.17-3.31,12.18,12.18,0,0,0,1.73-5.93Zm5.81-34.41a25.77,25.77,0,0,0,.1,2.77c.19,2.41.48,4.83.58,7.24.19,3.84.19,7.6.29,11.45.1,4.38.19,8.67.39,13.06a51.4,51.4,0,0,0,.68,5.54,3.34,3.34,0,0,0,2.89,2.95,20.3,20.3,0,0,0,3.28.27,2.34,2.34,0,0,0,2.41-2,18.14,18.14,0,0,0,.29-3.23c0-3.66-.19-7.33-.19-11.09,0-6.8.19-13.5.29-20.3v-7c.29,0,.48-.09.68-.09h4.05a1.63,1.63,0,0,0,.38-3.23,6.39,6.39,0,0,0-1.35-.09c-2.32-.09-4.62-.09-6.95-.18a64.79,64.79,0,0,0-10.23.45,21.93,21.93,0,0,0-3.28.8,1.29,1.29,0,0,0-1,1.44,1.43,1.43,0,0,0,1.35,1,25.37,25.37,0,0,0,2.61.09,26.28,26.28,0,0,0,2.7.1Zm-49,1.51c.29,0,.59-.09.78,0,1.37.09,2.73.27,4,.36a17.34,17.34,0,0,0,2.16.18,1.27,1.27,0,0,0,1.27-.72,1,1,0,0,0-.39-1.25,2.39,2.39,0,0,0-1.08-.54,33.45,33.45,0,0,0-12.28-1.7,8.39,8.39,0,0,0-1.46.27,2.72,2.72,0,0,0-2.24,2c-.19,1.25-.49,2.41-.59,3.66a125.48,125.48,0,0,0,0,14.84c.19,4,.59,8.14,1,12.16.19,1.7.39,3.49.59,5.19a4.86,4.86,0,0,0,1.85,3.31,7,7,0,0,0,3.32,1.25,34.22,34.22,0,0,0,9.55-.36A1.31,1.31,0,0,0,96.7,171c0-.72-.49-1.25-1.37-1.52a6.24,6.24,0,0,0-1.37-.18c-1.37-.09-2.63-.27-4.1-.36-.59-5-.68-10-.88-15h1.27c1.75-.09,3.51-.09,5.17-.18a1.71,1.71,0,0,0,1.66-1.44c0-.8-.59-1.34-1.66-1.34-1.85-.18-3.7-.27-5.46-.45a3.74,3.74,0,0,1-1-.18c.19-5.64,0-11-.1-16.55ZM105,239.9h1.41l5.45-.27a1.93,1.93,0,0,0,1.78-1.18c.6-1.27-.3-2.56-2-2.64a34.39,34.39,0,0,0-6.84-.09,171.09,171.09,0,0,1,1.1-18.81h1.23c1.08,0,2.05,0,3.13-.09a2.88,2.88,0,0,0,2-.72c.68-.72.59-1.44-.29-1.88a4.42,4.42,0,0,0-1.86-.54c-3.33-.36-6.74.09-10.07,0a.79.79,0,0,0-.49.09,2.33,2.33,0,0,0-2.25,2.33,30.93,30.93,0,0,1-.49,4.21,129.69,129.69,0,0,0-1.56,18.47c0,2-.1,3.85-.19,5.83,0,1.52-.1,3-.1,4.57.1,2.24,1.56,3.67,4,3.85a9.11,9.11,0,0,0,1.56,0c4.79-.09,9.68-.27,14.47-.36a9,9,0,0,0,2.16-.36,1.48,1.48,0,0,0,1.17-2c-.19-1.17-1.08-1.7-2.54-1.7l-9.87.27h-1C105.17,245.88,104.79,242.93,105,239.9ZM52.15,188.22c.29.36.49.63.68.89a75.15,75.15,0,0,0,7.8,6.71,7.72,7.72,0,0,0,1.46.89,1.29,1.29,0,0,0,1.37-.27,1.18,1.18,0,0,0,.39-1.34,1.83,1.83,0,0,0-.59-.89A74.18,74.18,0,0,0,57.32,188l-3.41-3.13L50,181.23a2.15,2.15,0,0,0-2.83-.27c-.68.45-1.46.89-2.16,1.34-2.83,2-5.75,4-8.58,6.08-3.7,2.87-7.41,5.72-11,8.67-1.94,1.54-3.79,3.06-5.66,4.67C18.21,203.06,18,204.32,19,206c.49.72,1,1.44,1.56,2.16a2.57,2.57,0,0,0,3.59.54c.78-.45,1.46-.89,2.24-1.44,3.32-2.32,6.53-4.74,9.85-7.06a5.39,5.39,0,0,1,.78-.54,5,5,0,0,0,.59.72c1.08,1.25,2,2.59,3.12,3.84a4.45,4.45,0,0,0,1,.89,1.74,1.74,0,0,0,2-.18,1.39,1.39,0,0,0,.29-1.7l-.59-.8-3.23-4a5,5,0,0,1-.49-.72C43.66,194.66,47.86,191.53,52.15,188.22Zm41.92,27.34c0-1.34-.29-2.23-1.27-2.77a11.11,11.11,0,0,0-3.69-1.14,2.27,2.27,0,0,0-2.34,1.25,15.32,15.32,0,0,0-.78,1.88c-.78,2.68-1.66,5.27-2.34,8-2,7.51-4,15-5.46,22.63-.19,1.25-.49,2.41-.68,3.66a3,3,0,0,0,2,3.31,10.53,10.53,0,0,0,3.32.8,2.51,2.51,0,0,0,2.53-1.34A11.36,11.36,0,0,0,86,250.2c1-3.59,2.16-7.06,2.92-10.64,1.56-6.8,3-13.59,4.58-20.3C93.67,217.91,93.87,216.57,94.06,215.57Z"/><path class="cls-1" d="M56.14,168.46c-.68-4.83-.88-9.66-1.08-14.49a11.77,11.77,0,0,1,4.67,0,14.56,14.56,0,0,1,5.95,2.59A9.25,9.25,0,0,1,70,162.92,3,3,0,0,1,68.61,166a18.57,18.57,0,0,1-1.85,1,21.25,21.25,0,0,1-10.33,1.52A.45.45,0,0,0,56.14,168.46Z"/><path class="cls-1" d="M54.78,150c-.19-5.36-.49-10.55-.68-15.83a7.5,7.5,0,0,1,3.7-.18,9.5,9.5,0,0,1,6.63,4.11,5.65,5.65,0,0,1-.39,7,9.16,9.16,0,0,1-3.31,2.59c-1.75.72-3.41,1.44-5.17,2.16A4.72,4.72,0,0,0,54.78,150Z"/><path class="cls-1" d="M72.13,206.55c2.34,2.51,4.19,5.1,4.39,8.58a6.54,6.54,0,0,1-5.65,6.44,11.37,11.37,0,0,1-9-2c-.59-.45-1.08-1-1.75-1.61C64,214.15,68,210.4,72.13,206.55Z"/><path class="cls-1" d="M156,192.07a10.88,10.88,0,0,1,7.9-4.38,15.26,15.26,0,0,1,8.87,1.52,11.77,11.77,0,0,1,3.23,2.41A23.35,23.35,0,0,1,182.7,205a7.8,7.8,0,0,1-.19,3.66C173.22,203.6,164.74,197.7,156,192.07Z"/></g></g></svg>