<svg xmlns="http://www.w3.org/2000/svg" viewBox="0 0 543 324"><defs><style>.cls-1,.cls-3,.cls-5{fill:#fff;}.cls-2,.cls-4,.cls-6{fill:none;}.cls-2,.cls-3{stroke:#6f4436;stroke-width:5px;}.cls-2,.cls-3,.cls-4,.cls-5,.cls-6{stroke-miterlimit:10;}.cls-4,.cls-5{stroke:#fff;}.cls-6{stroke:#000;}</style></defs><title>資產 24</title><g id="圖層_2" data-name="圖層 2"><g id="圖層_1-2" data-name="圖層 1"><ellipse class="cls-1" cx="288" cy="332.17" rx="28" ry="3.5" transform="translate(-50.69 29.2) rotate(-9.46)"/><ellipse class="cls-1" cx="438" cy="50.67" rx="7" ry="47" transform="translate(337.46 457.31) rotate(-83.42)"/><path class="cls-1" d="M323.49,325.67c-23.85,5.95-47.76,9.4-72.52,7-10-.87-19.07.88-29.11-1.75-8.48-1.48-17.68-3.58-26.38-5.25H0v21H515v-21Z" transform="translate(0 -22.67)"/><path class="cls-1" d="M513,22.67H0v39H31.27a79,79,0,0,1,59-14.91C110,49,129.8,49,149.57,47.9c115-6.88,227.45-9.18,344.88,8,2.68,0,5.37,3.38,8.45,5.74H513Z" transform="translate(0 -22.67)"/><path class="cls-1" d="M128,302.67c-2-2-4-5-6-6-29-19-51-48-67-77a14.39,14.39,0,0,1-3-2c-6-10-11-22-13-32C30.25,141,20.57,85.86,54,50.67H0v282H204.22c-15.92-4.17-32.22-5.37-46.22-15C148,311.67,136,309.67,128,302.67Z" transform="translate(0 -22.67)"/><path class="cls-1" d="M543,52.67H414.48c8.48,5.4,13,20,19.52,20.85,22,2,40,4,58,15.89,30,18.86,39,53.61,34,88.36-9,59.57-74,100.28-130,72.48-26,39.71-68,73.47-118,77.44a15.83,15.83,0,0,0-6.58,2H543Z" transform="translate(0 -22.67)"/><path class="cls-2" d="M398.05,249.4a12.68,12.68,0,0,1-1.14,1.63,302.49,302.49,0,0,1-19.32,26,147.38,147.38,0,0,1-78.34,47.57,261.85,261.85,0,0,1-33,5.82,238.38,238.38,0,0,1-36,.9,233.29,233.29,0,0,1-35.39-4.17,180.49,180.49,0,0,1-37.09-12,192.56,192.56,0,0,1-75.31-57.9,338.21,338.21,0,0,1-24.86-34,160.16,160.16,0,0,1-21.1-53.67,184.62,184.62,0,0,1-3.5-48.91,221.76,221.76,0,0,1,3.86-35.27q1.84-9,4.52-17.72a35.91,35.91,0,0,1,5.27-10.31,17.85,17.85,0,0,1,9.43-6.88,63.06,63.06,0,0,1,15.26-2.91c7.15-.54,14.32-.9,21.46-1.26a42.46,42.46,0,0,1,6.78.18,5.81,5.81,0,0,1,3.57,1h36.53L166,45.69c10.55-.36,21.1-.54,31.63-1.08,17.5-.72,35-.9,52.35-.9,13.93,0,28.05-.18,42,.18,11.3.18,22.41.72,33.71,1.08,7.15.18,14.49.54,21.66.9,13.52.72,26.93,1.63,40.57,2.71a117.93,117.93,0,0,1,19.18,3.15,32.92,32.92,0,0,1,21.1,15.73,85.71,85.71,0,0,1,4.52,9.48h.95a80.39,80.39,0,0,1,91.67,64.14,96.51,96.51,0,0,1,.95,29.49,113.75,113.75,0,0,1-8.09,32.34A97.51,97.51,0,0,1,492,239.09a88.65,88.65,0,0,1-56.49,19,99.14,99.14,0,0,1-36.17-8.13A9.49,9.49,0,0,0,398.05,249.4Z" transform="translate(0 -22.67)"/><g id="圖層_1-2-2" data-name="圖層 1-2"><path class="cls-3" d="M495.44,127.57q-16-23.44-49.49-25.8a52.39,52.39,0,0,0-14.56,1.18c-.25,2.53-.25,5.07-.47,7.43-.72,7.43-1.22,15-2.49,22.45-2.19,13.28-5,26.36-7.47,39.45a155.67,155.67,0,0,1-14.58,41.83,79.65,79.65,0,0,1-3.87,8.35,9,9,0,0,1,1.21.49,6.66,6.66,0,0,1,1.12.38,89.23,89.23,0,0,0,41.58,3.24c12.87-2.36,24-6.84,32.75-14.85a73.34,73.34,0,0,0,19.16-27.54,75.6,75.6,0,0,0,5.38-23.83A48.6,48.6,0,0,0,495.44,127.57Z" transform="translate(0 -22.67)"/></g><path class="cls-4" d="M152.73,107.52c2-1.35,3.76-2.35,5.32-3.53,12.28-9.87,7-24.4-2.74-29.21a35.49,35.49,0,0,0-10.81-3.85c-2.74-.34-5.49-.68-8.06-.84a44.71,44.71,0,0,0-12.46,1,5.26,5.26,0,0,0-4.4,4.05,15.6,15.6,0,0,0-.36,5c.19,3.38.55,6.74.73,10.23.36,7.51.55,15.28,1.11,22.83.55,8.39,1.47,16.78,2.39,25.17a62.85,62.85,0,0,0,1.65,8.05A6.26,6.26,0,0,0,130,151a10.07,10.07,0,0,0,2.39.34,66.32,66.32,0,0,0,11.54-.17,116.7,116.7,0,0,0,18.52-3.85,21.8,21.8,0,0,0,10.26-5.63,13.49,13.49,0,0,0,4.06-6.87,16.71,16.71,0,0,0-2-12.6,29.72,29.72,0,0,0-19.25-13.76C154.45,108,153.66,107.86,152.73,107.52ZM279.28,241.13c.55.17.73.17.92.34,5.32,2.85,10.62,5.54,15.77,8.73a188.39,188.39,0,0,0,28.42,15.43,30.43,30.43,0,0,0,4.21,1.5c4.4,1,7.52-1.5,7.33-5.54a11.89,11.89,0,0,0-1.11-4.19,50.44,50.44,0,0,0-3.76-6.87c-8.61-14.1-18.69-27.37-28.76-40.79-.19-.34-.55-.51-.73-.84a1.88,1.88,0,0,0-.92-.68,3.27,3.27,0,0,0-3.48-.34,2.5,2.5,0,0,0-1.88,2.7,5.81,5.81,0,0,0,.73,2.52,53.27,53.27,0,0,0,3.48,5.2c6.07,8.9,12.28,17.8,18.33,26.69,2.58,3.75,4.94,7.51,7.33,11.26a4,4,0,0,1,.73,1.5c-.36,0-.55,0-.73-.17a191,191,0,0,1-24.8-14.15c-5.49-3.85-11-7.72-16.49-11.41-1.47-1-2.93-2-4.4-2.85a8.41,8.41,0,0,0-7-.84l-7.88,2.52a20.69,20.69,0,0,0-2.74,1.35,5.8,5.8,0,0,0-3.12,6.55,50.63,50.63,0,0,0,1.28,5c3.29,9.24,6.6,18.47,10.08,27.69,2.39,6.21,5.13,12.09,7.71,18.13a23.46,23.46,0,0,0,2.74,4.52,5.19,5.19,0,0,0,5.64,2c1.65-.34,3.48-.51,5.13-1a28,28,0,0,0,5.32-1.88,5.63,5.63,0,0,0,3.1-7.34q-.08-.19-.17-.38a5.72,5.72,0,0,0-.73-1.5c-4.76-10.4-9.72-20.82-14.48-31.22C282.78,248.68,281.16,245,279.28,241.13Zm-131.8,7.51a8.11,8.11,0,0,1,1.11.34,26.47,26.47,0,0,0,17.22,1.67c7-1.67,12.65-5,15.77-11.26a24,24,0,0,0,0-20.65,35,35,0,0,0-16.67-17.29,5.91,5.91,0,0,0-7,.51,42.41,42.41,0,0,0-4.21,3.75c-5.32,5.39-10.62,10.57-15.94,16.11-8.78,9.07-17.56,18.3-26.21,27.52a26.28,26.28,0,0,0-3.12,4.19,4.43,4.43,0,0,0,1.11,6.06l2.58,2.35a4.33,4.33,0,0,0,6.11.3l.13-.13a27,27,0,0,0,3.29-3c5.13-5,10.08-10.23,15.21-15.28l1.28-1.18c.19.51.19.68.36.84.36,2.7.92,5.39,1.11,8.22,1.28,10.57,3.29,21.16,5.32,31.71a8.93,8.93,0,0,0,.73,2,3.44,3.44,0,0,0,3.48,1.5,2.86,2.86,0,0,0,2.74-2.18,11.66,11.66,0,0,0,.19-2.52c-.36-2.7-.92-5.39-1.28-7.88-.92-6.55-1.88-13.25-2.74-19.8-.21-2.23-.38-3.9-.56-5.91ZM385,214.57a47.62,47.62,0,0,0-2.74-13.25,48.51,48.51,0,0,0-15.57-22.15,34.31,34.31,0,0,0-38.84-2l-3.76,2.35a22.28,22.28,0,0,0-7.52,7,24.85,24.85,0,0,0-3.5,9.2,3.41,3.41,0,0,0,1.11,3.53c2,1.5,3.76,3.19,5.87,4.71,6.24,4.52,12.46,8.9,18.52,13.42A258.42,258.42,0,0,0,364.8,234a49.1,49.1,0,0,0,6.75,3.19,5.64,5.64,0,0,0,7.52-2,20.22,20.22,0,0,0,4.21-8.56ZM281.33,140c-.36-2.52-.73-5-1.28-7.51a53.16,53.16,0,0,0-9.89-19.3,202.33,202.33,0,0,0-16.67-18.47l-7.14-7a6.44,6.44,0,0,1-1.88-3.85,5.64,5.64,0,0,1,5.87-6.21,18.2,18.2,0,0,1,8.42,2,6.61,6.61,0,0,0,3.12.84c1.88,0,2.74-1.35,2-2.85a15.94,15.94,0,0,0-1.65-2,18.4,18.4,0,0,0-10.08-4.71,17.84,17.84,0,0,0-15.57,3.38,20,20,0,0,0-7.33,17.29A25,25,0,0,0,235.14,105a62.62,62.62,0,0,0,9.17,9.07c4.59,4.05,9.4,7.88,13.93,12.09a67.62,67.62,0,0,1,7,7.21,22.76,22.76,0,0,1,4.06,7.51,6.25,6.25,0,0,1-1.88,6.74,8.39,8.39,0,0,1-7.88,2.18,15.65,15.65,0,0,1-7.88-4.36,26.7,26.7,0,0,1-2.93-3.38,16.35,16.35,0,0,0-2.58-2.35,3.26,3.26,0,0,0-3.76,0,3.17,3.17,0,0,0-1.28,3.38,10,10,0,0,0,1.28,2.35c1.88,2.18,3.76,4.36,5.64,6.38a21.24,21.24,0,0,0,20.34,5.54,16.21,16.21,0,0,0,9.72-6.21A22.84,22.84,0,0,0,281.31,140ZM292,75.14a48.3,48.3,0,0,0,.19,5.2c.36,4.52.9,9.07,1.09,13.59.36,7.21.36,14.27.55,21.49.19,8.22.36,16.28.73,24.52a96.36,96.36,0,0,0,1.28,10.4,6.27,6.27,0,0,0,5.43,5.54,38.22,38.22,0,0,0,6.17.51,4.4,4.4,0,0,0,4.53-3.75,34,34,0,0,0,.55-6.06c0-6.87-.36-13.76-.36-20.82,0-12.77.36-25.34.55-38.11V74.51c.55,0,.9-.17,1.28-.17h7.61a3.06,3.06,0,0,0,.71-6.06,12,12,0,0,0-2.54-.17c-4.36-.17-8.69-.17-13.07-.34a122,122,0,0,0-19.23.84,41.28,41.28,0,0,0-6.17,1.5,2.42,2.42,0,0,0-1.88,2.7,2.69,2.69,0,0,0,2.54,1.88,47.76,47.76,0,0,0,4.91.17,49.47,49.47,0,0,0,5.08.19Zm-91.82,3.07c.55,0,1.11-.17,1.47,0,2.58.17,5.13.51,7.52.68a32.64,32.64,0,0,0,4.06.34,2.39,2.39,0,0,0,2.39-1.35,1.88,1.88,0,0,0-.73-2.35,4.5,4.5,0,0,0-2-1,63,63,0,0,0-23.09-3.19,15.79,15.79,0,0,0-2.74.51,5.11,5.11,0,0,0-4.21,3.75c-.36,2.35-.92,4.52-1.11,6.87a235.22,235.22,0,0,0,0,27.86c.36,7.51,1.11,15.28,1.88,22.83.36,3.19.73,6.55,1.11,9.74a9.12,9.12,0,0,0,3.48,6.21,13.17,13.17,0,0,0,6.24,2.35,64.42,64.42,0,0,0,18-.68,2.46,2.46,0,0,0,2.48-2.7c0-1.35-.92-2.35-2.58-2.85a11.75,11.75,0,0,0-2.58-.34c-2.58-.17-4.94-.51-7.71-.68-1.11-9.39-1.28-18.77-1.65-28.16h2.39c3.29-.17,6.6-.17,9.72-.34a3.21,3.21,0,0,0,3.12-2.7c0-1.5-1.11-2.52-3.12-2.52-3.48-.34-7-.51-10.26-.84a7,7,0,0,1-1.88-.34c.36-10.59,0-20.65-.19-31.07ZM230.4,277.78h2.68l10.2-.5a3.61,3.61,0,0,0,3.33-2.21c1.12-2.37-.56-4.78-3.74-4.93a64.45,64.45,0,0,0-12.8-.17,319.28,319.28,0,0,1,2.06-35.15h2.27c2,0,3.81,0,5.82-.17a5.36,5.36,0,0,0,3.72-1.34c1.27-1.34,1.1-2.68-.54-3.49a8.23,8.23,0,0,0-3.46-1c-6.19-.67-12.54.17-18.73,0a1.47,1.47,0,0,0-.91.17,4.33,4.33,0,0,0-4.19,4.33,57.38,57.38,0,0,1-.91,7.82,240.59,240.59,0,0,0-2.9,34.31c0,3.72-.19,7.15-.35,10.83,0,2.82-.19,5.57-.19,8.49.19,4.16,2.9,6.82,7.44,7.15a17,17,0,0,0,2.9,0c8.91-.17,18-.5,26.92-.67a16.76,16.76,0,0,0,4-.67,2.75,2.75,0,0,0,2.18-3.72c-.35-2.17-2-3.16-4.73-3.16l-18.36.5h-1.89C230.71,288.72,230,283.32,230.4,277.78ZM131,180c.55.68.92,1.18,1.28,1.67A141.22,141.22,0,0,0,147,194.3a14.52,14.52,0,0,0,2.74,1.67,2.43,2.43,0,0,0,2.58-.51,2.21,2.21,0,0,0,.73-2.52,3.44,3.44,0,0,0-1.11-1.67,139.34,139.34,0,0,0-11.17-11.66l-6.41-5.88L127,166.91a4,4,0,0,0-5.32-.51c-1.28.84-2.74,1.67-4.06,2.52-5.32,3.75-10.81,7.51-16.13,11.41-7,5.39-13.93,10.74-20.68,16.28-3.65,2.89-7.12,5.74-10.64,8.77-2.93,2.52-3.33,4.88-1.45,8,.92,1.35,1.88,2.7,2.93,4.05a4.84,4.84,0,0,0,6.75,1c1.47-.84,2.74-1.67,4.21-2.7,6.24-4.36,12.28-8.9,18.52-13.25a10.13,10.13,0,0,1,1.47-1,9.39,9.39,0,0,0,1.11,1.35c2,2.35,3.76,4.86,5.87,7.21a8.36,8.36,0,0,0,1.88,1.67,3.27,3.27,0,0,0,3.76-.34,2.61,2.61,0,0,0,.55-3.19l-1.11-1.5-6.07-7.51a9.39,9.39,0,0,1-.92-1.35C115.09,192.12,123,186.24,131,180Zm78.81,51.32c0-2.52-.55-4.19-2.39-5.2a20.91,20.91,0,0,0-6.94-2.14,4.27,4.27,0,0,0-4.4,2.35,28.74,28.74,0,0,0-1.47,3.53c-1.47,5-3.12,9.89-4.4,15-3.76,14.1-7.52,28.16-10.26,42.48-.36,2.35-.92,4.52-1.28,6.87a5.63,5.63,0,0,0,3.76,6.21,19.82,19.82,0,0,0,6.24,1.5,4.72,4.72,0,0,0,4.76-2.52,21.31,21.31,0,0,0,1.2-3.08c1.88-6.74,4.06-13.25,5.49-20,2.93-12.77,5.64-25.51,8.61-38.11.32-2.53.7-5,1.05-6.93Z" transform="translate(0 -22.67)"/><path class="cls-5" d="M138.55,142.93c-1.28-9.07-1.65-18.13-2-27.2a22.16,22.16,0,0,1,8.78,0,27.39,27.39,0,0,1,11.19,4.86,17.36,17.36,0,0,1,8.12,11.94,5.63,5.63,0,0,1-2.61,5.78,34.93,34.93,0,0,1-3.48,1.88A40,40,0,0,1,139.09,143,.85.85,0,0,0,138.55,142.93Z" transform="translate(0 -22.67)"/><path class="cls-5" d="M136,108.28c-.36-10.06-.92-19.8-1.28-29.72a14.12,14.12,0,0,1,7-.34,17.86,17.86,0,0,1,12.46,7.72,10.59,10.59,0,0,1-.73,13.14,17.22,17.22,0,0,1-6.22,4.86c-3.29,1.35-6.41,2.7-9.72,4.05A8.89,8.89,0,0,0,136,108.28Z" transform="translate(0 -22.67)"/><path class="cls-5" d="M168.61,214.44c4.4,4.71,7.88,9.57,8.25,16.11a12.28,12.28,0,0,1-10.62,12.09,21.4,21.4,0,0,1-16.92-3.75c-1.11-.84-2-1.88-3.29-3C153.33,228.71,160.85,221.67,168.61,214.44Z" transform="translate(0 -22.67)"/><path class="cls-5" d="M326.28,193.26A20.46,20.46,0,0,1,341.13,185a28.72,28.72,0,0,1,16.67,2.85,22.12,22.12,0,0,1,6.07,4.52,43.81,43.81,0,0,1,12.6,25.12,14.62,14.62,0,0,1-.36,6.87C358.65,214.9,342.71,203.82,326.28,193.26Z" transform="translate(0 -22.67)"/><path class="cls-6" d="M145,0" transform="translate(0 -22.67)"/><path class="cls-6" d="M99.67,18.67" transform="translate(0 -22.67)"/><circle class="cls-1" cx="477" cy="324"/><rect class="cls-1" x="513" width="30" height="33"/><rect class="cls-1" x="515" y="306" width="28" height="18"/><g id="圖層_2-2" data-name="圖層 2"><g id="圖層_1-2-3" data-name="圖層 1-2"><path class="cls-1" d="M230.35,181c-.71-.79-1.14-1.57-1.71-2.22a15.77,15.77,0,0,0-8.1-5.23c-5.83-1.46-11.08,1.57-12.07,6.91a10.7,10.7,0,0,0,.42,5.6,34.67,34.67,0,0,0,13.61,19.16,22.88,22.88,0,0,0,4.37,2.35,10,10,0,0,0,9.52-1.46l4.37-3.15a30.37,30.37,0,0,0,10.65-13.29,13.38,13.38,0,0,0,.57-9.39c-2-6-8.38-8.47-14.49-5.6a18.65,18.65,0,0,0-5.83,4.37,15.87,15.87,0,0,1-1.46,1.82Z" transform="translate(0 -22.67)"/></g></g></g></g></svg>