<svg xmlns="http://www.w3.org/2000/svg" viewBox="0 0 254.23 242.35"><defs><style>.cls-1{fill:#fff;}.cls-2{fill:#4b2a00;}</style></defs><title>資產 2</title><g id="圖層_2" data-name="圖層 2"><g id="圖層_1-2" data-name="圖層 1"><g id="圖層_1-2-2" data-name="圖層 1-2-2"><path class="cls-1" d="M254.23,103.2c0-56.89-57-103.2-127.1-103.2S0,46.31,0,103.2c0,51,45.2,93.69,106.33,101.8,14.87,3.2,13.18,8.6,9.82,28.68-.54,3.2-2.58,12.56,11,6.87s73.18-43.11,99.92-73.78C245.47,146.46,254.23,126,254.23,103.2Z"/><path class="cls-2" d="M207.55,77.71h-35.1A2.48,2.48,0,0,0,170,80.19v55a2.48,2.48,0,0,0,2.45,2.5h35.06a2.49,2.49,0,0,0,2.49-2.49v-9.89a2.53,2.53,0,0,0-2.42-2.62H183v-9h24.51a2.49,2.49,0,0,0,2.49-2.49v-8a2.47,2.47,0,0,0-2.47-2.47H183v-9h24.53A2.47,2.47,0,0,0,210,89.22s0-.32,0-.33V80.21A2.58,2.58,0,0,0,207.55,77.71Z"/><path class="cls-2" d="M163,79.71v55.5a2.48,2.48,0,0,1-2.45,2.5h-9a2.6,2.6,0,0,1-2-1L124,102.44V135.2a2.48,2.48,0,0,1-2.45,2.5H112.5a2.49,2.49,0,0,1-2.5-2.48h0v-55a2.49,2.49,0,0,1,2.49-2.49h8.24s1.73-.25,2,.45L148,112.32V80s1-2.47,2.35-2.31h8.82a2.71,2.71,0,0,1,2.34,1.09,1.41,1.41,0,0,1,.22.91Z"/><path class="cls-2" d="M99.47,77.71h-9A2.49,2.49,0,0,0,88,80.19v55a2.51,2.51,0,0,0,2.51,2.5h9a2.51,2.51,0,0,0,2.53-2.48h0v-55a2.51,2.51,0,0,0-2.51-2.5Z"/><path class="cls-2" d="M75.51,124.71H52V80.41c-.68-1.4-1.67-2.46-3.09-1.71H40.34C39,78,37,80.41,37,80.41v55a2.1,2.1,0,0,0,.72,1.64,2.77,2.77,0,0,0,1.71.65h36A2.42,2.42,0,0,0,78,135.4V127A2.44,2.44,0,0,0,75.51,124.71Z"/></g></g></g></svg>