<svg xmlns="http://www.w3.org/2000/svg" viewBox="0 0 130.93 124.81"><defs><style>.cls-1{fill:#6f4436;}.cls-2{fill:#fff;}</style></defs><title>資產 3</title><g id="圖層_2" data-name="圖層 2"><g id="圖層_1-2" data-name="圖層 1"><g id="圖層_1-2-2" data-name="圖層 1-2"><path class="cls-1" d="M130.93,53.15C130.93,23.85,101.55,0,65.47,0S0,23.85,0,53.15c0,26.25,23.28,48.25,54.76,52.43,7.66,1.65,6.79,4.43,5.06,14.77-.28,1.65-1.33,6.47,5.66,3.54s37.69-22.2,51.46-38C126.42,75.43,130.93,64.87,130.93,53.15Z"/><path class="cls-2" d="M83.86,41.15V69.71A1.28,1.28,0,0,1,82.58,71H77.95a1.35,1.35,0,0,1-1.05-.52L63.68,52.84V69.71A1.28,1.28,0,0,1,62.39,71H57.93a1.27,1.27,0,0,1-1.27-1.27h0V41.56a1.28,1.28,0,0,1,1.28-1.28h4.18s.88-.13,1,.23L76,58V41.21c.16-.72.72-1.27,1.43-.94h4.54a.88.88,0,0,1,1.32.88Z"/><path class="cls-2" d="M51,40.27H46.53a1.28,1.28,0,0,0-1.28,1.28V69.72A1.27,1.27,0,0,0,46.51,71H51a1.27,1.27,0,0,0,1.27-1.27h0V41.55A1.27,1.27,0,0,0,51,40.27Z"/><path class="cls-2" d="M38.72,64H26.81V41.15c-.36-.72-.88-1.27-1.63-.88H20.66c-.72-.37-1.76.88-1.76.88V69.76a1.15,1.15,0,0,0,.37.88,1.39,1.39,0,0,0,.88.35H38.7A1.27,1.27,0,0,0,40,69.74v-4.5A1.28,1.28,0,0,0,38.72,64Z"/><path class="cls-2" d="M107.15,40.27H88.67a1.29,1.29,0,0,0-1.29,1.27V69.72A1.29,1.29,0,0,0,88.67,71h18.49a1.28,1.28,0,0,0,1.28-1.28V64.38a1.27,1.27,0,0,0-1.26-1.28H94.4V58.71h12.76a1.28,1.28,0,0,0,1.28-1.28V53a1.27,1.27,0,0,0-1.27-1.27H94.4V47.3h12.76A1.28,1.28,0,0,0,108.44,46V41.55A1.34,1.34,0,0,0,107.15,40.27Z"/></g></g></g></svg>