<svg xmlns="http://www.w3.org/2000/svg" viewBox="0 0 138.9 112.79"><defs><style>.cls-1{fill:#6f4436;}</style></defs><title>資產 2</title><g id="圖層_2" data-name="圖層 2"><g id="圖層_1-2" data-name="圖層 1"><g id="圖層_1-2-2" data-name="圖層 1-2"><path class="cls-1" d="M124.62,28.1c.09,1.24.09,2.47.09,3.7,0,37.63-28.64,81-81,81A80.44,80.44,0,0,1,0,100a58.89,58.89,0,0,0,6.87.35A57,57,0,0,0,42.22,88.2,28.52,28.52,0,0,1,15.62,68.46,35.9,35.9,0,0,0,21,68.9a30.11,30.11,0,0,0,7.49-1A28.47,28.47,0,0,1,5.64,40v-.35a28.67,28.67,0,0,0,12.86,3.61A28.51,28.51,0,0,1,9.69,5.2,80.92,80.92,0,0,0,68.39,35a32.15,32.15,0,0,1-.7-6.52A28.5,28.5,0,0,1,117,9,56,56,0,0,0,135,2.11,28.39,28.39,0,0,1,122.51,17.8a57.09,57.09,0,0,0,16.39-4.41,61.19,61.19,0,0,1-14.28,14.72Z"/></g></g></g></svg>