<svg xmlns="http://www.w3.org/2000/svg" viewBox="0 0 374.74 304.4"><defs><style>.cls-1{fill:#fff;}</style></defs><title>資產 3</title><g id="圖層_2" data-name="圖層 2"><g id="圖層_1-2" data-name="圖層 1"><g id="圖層_2-2" data-name="圖層 2"><g id="圖層_1-2-2" data-name="圖層 1-2"><g id="圖層_1-2-2-2" data-name="圖層 1-2-2"><path class="cls-1" d="M336.22,75.89c.24,3.35.24,6.66.24,10,0,101.52-77.27,218.53-218.53,218.53A217,217,0,0,1,0,269.87a158.88,158.88,0,0,0,18.53.94A153.78,153.78,0,0,0,113.91,238a77,77,0,0,1-71.77-53.26A96.86,96.86,0,0,0,56.66,186a81.24,81.24,0,0,0,20.21-2.7A76.81,76.81,0,0,1,15.22,108V107a77.35,77.35,0,0,0,34.7,9.74A76.92,76.92,0,0,1,26.14,14.1,218.32,218.32,0,0,0,184.51,94.5a86.74,86.74,0,0,1-1.89-17.59,76.89,76.89,0,0,1,133-52.56A151.08,151.08,0,0,0,364.22,5.77a76.59,76.59,0,0,1-33.7,42.33,154,154,0,0,0,44.22-11.9,165.09,165.09,0,0,1-38.53,39.71Z"/></g></g></g></g></g></svg>