<svg xmlns="http://www.w3.org/2000/svg" viewBox="0 0 184 184"><defs><style>.cls-1{fill:#fff;}.cls-2{fill:#6f4436;}</style></defs><title>資產 29</title><g id="圖層_2" data-name="圖層 2"><g id="圖層_1-2" data-name="圖層 1"><rect class="cls-1" width="184" height="184" rx="92" ry="92"/><path class="cls-2" d="M166.09,86.57c0-33.08-33.17-60-73.9-60s-73.9,26.92-73.9,60c0,29.63,26.28,54.47,61.81,59.18,8.65,1.86,7.66,5,5.71,16.67-.32,1.86-1.5,7.3,6.39,4s42.55-25.06,58.09-42.91C161,111.72,166.09,99.8,166.09,86.57Z"/><path class="cls-1" d="M113,73v32.52a1.45,1.45,0,0,1-1.45,1.45h-5.29a1.54,1.54,0,0,1-1.2-.59L90,86.47v19.08A1.45,1.45,0,0,1,88.55,107h-5.1A1.45,1.45,0,0,1,82,105.55V73.45A1.45,1.45,0,0,1,83.45,72h4.78s1-.15,1.18.26L104,92.2V73.07c.18-.82.82-1.45,1.63-1.07h5.17a1,1,0,0,1,1.5,1Z"/><path class="cls-1" d="M75.56,72H70.45A1.45,1.45,0,0,0,69,73.45v32.1A1.45,1.45,0,0,0,70.45,107h5.1A1.45,1.45,0,0,0,77,105.55V73.45A1.45,1.45,0,0,0,75.56,72Z"/><path class="cls-1" d="M62.57,99H49V73c-.41-.82-1-1.45-1.86-1H42c-.82-.42-2,1-2,1v32.58a1.3,1.3,0,0,0,.42,1,1.58,1.58,0,0,0,1,.4H62.55A1.45,1.45,0,0,0,64,105.55v-5.11A1.46,1.46,0,0,0,62.57,99Z"/><path class="cls-1" d="M139.53,72H118.47A1.47,1.47,0,0,0,117,73.45v32.11a1.47,1.47,0,0,0,1.47,1.45h21.08a1.45,1.45,0,0,0,1.45-1.45v-6.1A1.45,1.45,0,0,0,139.55,98H125V93h14.55A1.45,1.45,0,0,0,141,91.55v-5.1A1.45,1.45,0,0,0,139.55,85H125V80h14.55A1.45,1.45,0,0,0,141,78.55v-5.1A1.53,1.53,0,0,0,139.53,72Z"/></g></g></svg>