<svg xmlns="http://www.w3.org/2000/svg" viewBox="0 0 568 332"><defs><style>.cls-1{fill:#452b21;}.cls-2,.cls-4,.cls-6{fill:none;}.cls-2,.cls-3{stroke:#6f4436;stroke-width:5px;}.cls-2,.cls-3,.cls-4,.cls-5,.cls-6{stroke-miterlimit:10;}.cls-3,.cls-5,.cls-7{fill:#fff;}.cls-4,.cls-5{stroke:#fff;}.cls-6{stroke:#000;}</style></defs><title>資產 2</title><g id="圖層_2" data-name="圖層 2"><g id="圖層_1-2" data-name="圖層 1"><g id="圖層_1-2-2" data-name="圖層 1-2"><ellipse class="cls-1" cx="455.5" cy="68.5" rx="7.5" ry="3.5"/><ellipse class="cls-1" cx="311.65" cy="318.51" rx="26.84" ry="3.35" transform="translate(-48.11 55.55) rotate(-9.46)"/><ellipse class="cls-1" cx="455.43" cy="48.67" rx="6.71" ry="45.05" transform="translate(354.89 495.52) rotate(-83.42)"/><path class="cls-1" d="M340.3,308c-22.88,5.67-45.81,9-69.56,6.67-9.59-.83-18.29.84-27.92-1.67-8.13-1.41-17-3.41-25.3-5H30v20H524V308Z"/><path class="cls-1" d="M527,23H35V60H65.58a76.53,76.53,0,0,1,56.55-14.08C141,48.07,160,48.07,179,47c110.23-6.59,218-8.8,330.57,7.67,2.57,0,8.1,6.32,8.1,6.32H527Z"/><path class="cls-1" d="M160.55,288.28c-1.91-1.91-3.83-4.79-5.74-5.74-27.77-18.19-48.83-46-64.15-73.72a13.78,13.78,0,0,1-2.87-1.91c-5.74-9.57-10.53-21.06-12.45-30.64C67,133.49,57.69,80.69,89.7,47H38V317H233.53c-15.24-4-30.85-5.14-44.25-14.36C179.7,296.89,168.21,295,160.55,288.28Z"/><path class="cls-1" d="M557,49H433.59c8.14,5.19,12.48,19.2,18.74,20,21.12,1.92,38.41,3.84,55.69,15.26,28.81,18.11,37.45,51.48,32.65,84.84-8.64,57.2-71.06,96.29-124.83,69.6-25,38.13-65.29,70.55-113.31,74.36a15.2,15.2,0,0,0-6.32,1.92H557Z"/><path class="cls-2" d="M417.15,237.52a12.06,12.06,0,0,1-1.09,1.55,287.86,287.86,0,0,1-18.52,24.73A141.46,141.46,0,0,1,322.44,309a252.76,252.76,0,0,1-31.63,5.54,230.27,230.27,0,0,1-34.51.86,225.28,225.28,0,0,1-33.92-4,174,174,0,0,1-35.55-11.41A184.4,184.4,0,0,1,114.65,245a321.79,321.79,0,0,1-23.83-32.34,151.64,151.64,0,0,1-20.22-51,174.26,174.26,0,0,1-3.35-46.52,209.34,209.34,0,0,1,3.7-33.54Q72.7,73,75.27,64.69a34.06,34.06,0,0,1,5.05-9.81,17.1,17.1,0,0,1,9-6.54A60.86,60.86,0,0,1,104,45.58c6.85-.51,13.73-.86,20.57-1.2a41,41,0,0,1,6.5.17,5.6,5.6,0,0,1,3.42,1h35l25.23-1.72c10.11-.34,20.22-.51,30.32-1,16.77-.68,33.55-.86,50.18-.86,13.35,0,26.89-.17,40.26.17,10.83.17,21.48.68,32.31,1,6.85.17,13.89.51,20.76.86,13,.68,25.81,1.55,38.89,2.58a113.85,113.85,0,0,1,18.38,3,31.53,31.53,0,0,1,20.22,15,81.24,81.24,0,0,1,4.33,9h.91c41.08-6.54,80,20.46,87.87,61a91.09,91.09,0,0,1,.91,28,107.5,107.5,0,0,1-7.75,30.76,92.77,92.77,0,0,1-25.11,34.41,85.4,85.4,0,0,1-54.15,18.07,95.65,95.65,0,0,1-34.67-7.73A9.13,9.13,0,0,0,417.15,237.52Z"/><g id="圖層_1-2-2-2" data-name="圖層 1-2-2"><path class="cls-3" d="M510.5,122.38q-15.34-22.47-47.44-24.73a50.22,50.22,0,0,0-14,1.13c-.24,2.43-.24,4.86-.45,7.12-.69,7.12-1.17,14.38-2.39,21.52-2.1,12.73-4.79,25.27-7.16,37.81a149.21,149.21,0,0,1-14,40.09,76.35,76.35,0,0,1-3.71,8,8.63,8.63,0,0,1,1.16.47,6.38,6.38,0,0,1,1.07.36,85.53,85.53,0,0,0,39.86,3.11c12.34-2.26,23-6.56,31.39-14.23a70.3,70.3,0,0,0,18.37-26.4,72.46,72.46,0,0,0,5.16-22.84A46.58,46.58,0,0,0,510.5,122.38Z"/></g><path class="cls-4" d="M182,103.16c1.92-1.29,3.6-2.25,5.1-3.38,11.77-9.46,6.71-23.39-2.63-28a34,34,0,0,0-10.36-3.69c-2.63-.33-5.26-.65-7.73-.81a42.86,42.86,0,0,0-11.94,1,5,5,0,0,0-4.22,3.88,15,15,0,0,0-.35,4.79c.18,3.24.53,6.46.7,9.81.35,7.2.53,14.65,1.06,21.88.53,8,1.41,16.08,2.29,24.13a60.24,60.24,0,0,0,1.58,7.72,6,6,0,0,0,4.7,4.39,9.65,9.65,0,0,0,2.29.33,63.57,63.57,0,0,0,11.06-.16,111.86,111.86,0,0,0,17.75-3.69,20.9,20.9,0,0,0,9.83-5.4,12.93,12.93,0,0,0,3.89-6.58,16,16,0,0,0-1.92-12.08,28.49,28.49,0,0,0-18.45-13.19C183.65,103.62,182.89,103.49,182,103.16ZM303.3,231.23c.53.16.7.16.88.33,5.1,2.73,10.18,5.31,15.12,8.37a180.57,180.57,0,0,0,27.24,14.79,29.17,29.17,0,0,0,4,1.44c4.22,1,7.21-1.44,7-5.31a11.4,11.4,0,0,0-1.06-4,48.35,48.35,0,0,0-3.6-6.58c-8.25-13.52-17.91-26.23-27.57-39.1-.18-.33-.53-.49-.7-.81a1.8,1.8,0,0,0-.88-.65,3.13,3.13,0,0,0-3.34-.33,2.4,2.4,0,0,0-1.8,2.59,5.57,5.57,0,0,0,.7,2.42,51.06,51.06,0,0,0,3.34,5c5.82,8.53,11.77,17.06,17.57,25.58,2.47,3.59,4.74,7.2,7,10.79a3.83,3.83,0,0,1,.7,1.44c-.35,0-.53,0-.7-.16a183.08,183.08,0,0,1-23.77-13.56c-5.26-3.69-10.54-7.4-15.81-10.94-1.41-1-2.81-1.92-4.22-2.73a8.06,8.06,0,0,0-6.71-.81l-7.55,2.42a19.83,19.83,0,0,0-2.63,1.29,5.56,5.56,0,0,0-3,6.28,48.53,48.53,0,0,0,1.23,4.79c3.15,8.86,6.33,17.7,9.66,26.54,2.29,6,4.92,11.59,7.39,17.38a22.49,22.49,0,0,0,2.63,4.33,5,5,0,0,0,5.41,1.92c1.58-.33,3.34-.49,4.92-1a26.84,26.84,0,0,0,5.1-1.8,5.4,5.4,0,0,0,3-7h0l-.16-.36a5.48,5.48,0,0,0-.7-1.44c-4.56-10-9.32-20-13.88-29.92C306.66,238.47,305.1,234.94,303.3,231.23ZM177,238.43a7.77,7.77,0,0,1,1.06.33,25.37,25.37,0,0,0,16.51,1.6c6.71-1.6,12.13-4.79,15.12-10.79a23,23,0,0,0,0-19.79,33.55,33.55,0,0,0-16-16.57,5.66,5.66,0,0,0-6.71.49,40.65,40.65,0,0,0-4,3.59c-5.1,5.17-10.18,10.13-15.28,15.44-8.42,8.69-16.83,17.54-25.12,26.38a25.19,25.19,0,0,0-3,4,4.25,4.25,0,0,0,1.06,5.81l2.47,2.25a4.15,4.15,0,0,0,5.86.29l.12-.12a25.88,25.88,0,0,0,3.15-2.88c4.92-4.79,9.66-9.81,14.58-14.65l1.23-1.13c.18.49.18.65.35.81.35,2.59.88,5.17,1.06,7.88,1.23,10.13,3.15,20.28,5.1,30.39a8.56,8.56,0,0,0,.7,1.92,3.3,3.3,0,0,0,3.34,1.44,2.74,2.74,0,0,0,2.63-2.09,11.18,11.18,0,0,0,.18-2.42c-.35-2.59-.88-5.17-1.23-7.55-.88-6.28-1.8-12.7-2.63-19-.2-2.14-.36-3.74-.54-5.66Zm227.67-32.66a45.64,45.64,0,0,0-2.63-12.7,46.5,46.5,0,0,0-14.92-21.23,32.89,32.89,0,0,0-37.23-1.92l-3.6,2.25a21.36,21.36,0,0,0-7.21,6.71,23.82,23.82,0,0,0-3.35,8.82,3.27,3.27,0,0,0,1.06,3.38c1.92,1.44,3.6,3.06,5.63,4.51,6,4.33,11.94,8.53,17.75,12.86a247.7,247.7,0,0,0,25.14,15.93,47.06,47.06,0,0,0,6.47,3.06,5.41,5.41,0,0,0,7.21-1.92,19.38,19.38,0,0,0,4-8.2ZM305.27,134.5c-.35-2.42-.7-4.79-1.23-7.2a51,51,0,0,0-9.48-18.5,193.94,193.94,0,0,0-16-17.7l-6.84-6.71a6.17,6.17,0,0,1-1.8-3.69,5.41,5.41,0,0,1,5.63-6,17.45,17.45,0,0,1,8.07,1.92,6.34,6.34,0,0,0,3,.81c1.8,0,2.63-1.29,1.92-2.73A15.28,15.28,0,0,0,287,72.82a17.64,17.64,0,0,0-9.66-4.51,17.1,17.1,0,0,0-14.92,3.24,19.17,19.17,0,0,0-7,16.57A24,24,0,0,0,261,101a60,60,0,0,0,8.79,8.69c4.4,3.88,9,7.55,13.35,11.59a64.81,64.81,0,0,1,6.71,6.91,21.82,21.82,0,0,1,3.89,7.2,6,6,0,0,1-1.8,6.46,8,8,0,0,1-7.55,2.09,15,15,0,0,1-7.55-4.18,25.59,25.59,0,0,1-2.81-3.24,15.67,15.67,0,0,0-2.47-2.25,3.12,3.12,0,0,0-3.6,0,3,3,0,0,0-1.23,3.24,9.59,9.59,0,0,0,1.23,2.25c1.8,2.09,3.6,4.18,5.41,6.12a20.36,20.36,0,0,0,19.5,5.31,15.54,15.54,0,0,0,9.32-6,21.89,21.89,0,0,0,3.09-10.69Zm10.38-62.23a46.29,46.29,0,0,0,.18,5c.35,4.33.86,8.69,1,13,.35,6.91.35,13.68.53,20.6.18,7.88.35,15.6.7,23.5a92.36,92.36,0,0,0,1.23,10,6,6,0,0,0,5.2,5.31,36.63,36.63,0,0,0,5.91.49,4.22,4.22,0,0,0,4.34-3.59,32.59,32.59,0,0,0,.53-5.81c0-6.58-.35-13.19-.35-20,0-12.24.35-24.29.53-36.53V71.66c.53,0,.86-.16,1.23-.16H344a2.93,2.93,0,0,0,.68-5.81,11.5,11.5,0,0,0-2.43-.16c-4.18-.16-8.33-.16-12.53-.33a116.94,116.94,0,0,0-18.43.81,39.57,39.57,0,0,0-5.91,1.44,2.32,2.32,0,0,0-1.8,2.59,2.58,2.58,0,0,0,2.43,1.8,45.78,45.78,0,0,0,4.71.16,47.42,47.42,0,0,0,4.87.18Zm-88.17,3c.53,0,1.06-.16,1.41,0,2.47.16,4.92.49,7.21.65a31.29,31.29,0,0,0,3.89.33,2.29,2.29,0,0,0,2.29-1.29,1.8,1.8,0,0,0-.7-2.25,4.31,4.31,0,0,0-1.92-1,60.39,60.39,0,0,0-22.13-3.06,15.13,15.13,0,0,0-2.63.49,4.9,4.9,0,0,0-4,3.59c-.35,2.25-.88,4.33-1.06,6.59a225.46,225.46,0,0,0,0,26.7c.35,7.2,1.06,14.65,1.8,21.88.35,3.06.7,6.28,1.06,9.34a8.74,8.74,0,0,0,3.34,6,12.62,12.62,0,0,0,6,2.25,61.75,61.75,0,0,0,17.25-.65,2.36,2.36,0,0,0,2.38-2.59c0-1.29-.88-2.25-2.47-2.73a11.26,11.26,0,0,0-2.47-.33c-2.47-.16-4.74-.49-7.39-.65-1.06-9-1.23-18-1.58-27H230c3.15-.16,6.33-.16,9.32-.33a3.08,3.08,0,0,0,3-2.59c0-1.44-1.06-2.42-3-2.42-3.34-.33-6.71-.49-9.83-.81a6.71,6.71,0,0,1-1.8-.33c.35-10.15,0-19.79-.18-29.78Zm29,191.27H259l9.73-.48a3.45,3.45,0,0,0,3.18-2.11c1.07-2.26-.53-4.56-3.57-4.71a61.51,61.51,0,0,0-12.22-.16,304.72,304.72,0,0,1,2-33.55h2.15c1.92,0,3.66,0,5.59-.16a5.15,5.15,0,0,0,3.57-1.29c1.22-1.29,1.06-2.57-.52-3.35a7.9,7.9,0,0,0-3.32-1c-5.94-.64-12,.16-18,0a1.41,1.41,0,0,0-.87.16,4.16,4.16,0,0,0-4,4.16,55.08,55.08,0,0,1-.87,7.51,231,231,0,0,0-2.78,32.93c0,3.57-.18,6.86-.34,10.4,0,2.71-.18,5.35-.18,8.15.18,4,2.78,6.55,7.14,6.86a16.32,16.32,0,0,0,2.78,0c8.55-.16,17.28-.48,25.84-.64a16.09,16.09,0,0,0,3.84-.64,2.64,2.64,0,0,0,2.09-3.57c-.34-2.08-1.92-3-4.54-3l-17.62.48h-1.81C256.75,277.16,256.06,271.9,256.45,266.5Zm-95.28-93.87c.53.65.88,1.13,1.23,1.6a135.36,135.36,0,0,0,14.11,12.11,13.92,13.92,0,0,0,2.63,1.6,2.33,2.33,0,0,0,2.47-.49,2.12,2.12,0,0,0,.7-2.42,3.3,3.3,0,0,0-1.06-1.6,133.56,133.56,0,0,0-10.71-11.18l-6.14-5.64-7.05-6.54a3.83,3.83,0,0,0-5.1-.49c-1.23.81-2.63,1.6-3.89,2.42-5.1,3.59-10.36,7.2-15.46,10.94-6.71,5.17-13.35,10.29-19.82,15.6-3.5,2.77-6.82,5.5-10.2,8.41-2.81,2.42-3.19,4.68-1.39,7.67.88,1.29,1.8,2.59,2.81,3.88a4.64,4.64,0,0,0,6.47,1c1.41-.81,2.63-1.6,4-2.59,6-4.18,11.77-8.53,17.75-12.7a9.71,9.71,0,0,1,1.41-1,9,9,0,0,0,1.06,1.29c1.92,2.25,3.6,4.66,5.63,6.91a8,8,0,0,0,1.8,1.6,3.13,3.13,0,0,0,3.6-.33,2.5,2.5,0,0,0,.53-3.06l-1.06-1.44-5.82-7.2a9,9,0,0,1-.88-1.29C145.92,184.25,153.51,178.62,161.17,172.63Zm75.54,49.19c0-2.42-.53-4-2.29-5a20,20,0,0,0-6.65-2.05,4.09,4.09,0,0,0-4.22,2.25,27.55,27.55,0,0,0-1.41,3.38c-1.41,4.79-3,9.48-4.22,14.38-3.6,13.52-7.21,27-9.83,40.72-.35,2.25-.88,4.33-1.23,6.58a5.4,5.4,0,0,0,3.6,6,19,19,0,0,0,6,1.44,4.52,4.52,0,0,0,4.56-2.42,20.43,20.43,0,0,0,1.15-3c1.8-6.46,3.89-12.7,5.26-19.17,2.81-12.24,5.41-24.45,8.25-36.53.31-2.43.67-4.79,1-6.64Z"/><path class="cls-5" d="M168.41,137.1A256.41,256.41,0,0,1,166.49,111a21.24,21.24,0,0,1,8.42,0,26.25,26.25,0,0,1,10.73,4.66,16.64,16.64,0,0,1,7.78,11.44,5.4,5.4,0,0,1-2.5,5.54,33.48,33.48,0,0,1-3.34,1.8,38.34,38.34,0,0,1-18.65,2.69A.81.81,0,0,0,168.41,137.1Z"/><path class="cls-5" d="M166,103.89c-.35-9.64-.88-19-1.23-28.49a13.53,13.53,0,0,1,6.71-.33,17.12,17.12,0,0,1,11.94,7.4,10.15,10.15,0,0,1-.7,12.59,16.51,16.51,0,0,1-6,4.66c-3.15,1.29-6.14,2.59-9.32,3.88A8.52,8.52,0,0,0,166,103.89Z"/><path class="cls-5" d="M197.22,205.65c4.22,4.51,7.55,9.17,7.91,15.44A11.77,11.77,0,0,1,195,232.68a20.51,20.51,0,0,1-16.22-3.59c-1.06-.81-1.92-1.8-3.15-2.88C182.58,219.32,189.79,212.58,197.22,205.65Z"/><path class="cls-5" d="M348.35,185.34a19.61,19.61,0,0,1,14.23-7.92,27.53,27.53,0,0,1,16,2.73,21.2,21.2,0,0,1,5.82,4.33,42,42,0,0,1,12.08,24.08,14,14,0,0,1-.35,6.58C379.38,206.09,364.1,195.47,348.35,185.34Z"/><path class="cls-6" d="M174.59.1"/><path class="cls-6" d="M131.14,18"/><circle class="cls-7" cx="492.82" cy="332.39"/><rect class="cls-1" x="527" y="22" width="29" height="32"/><rect class="cls-7" x="529" y="315" width="27" height="17"/><g id="圖層_2-2" data-name="圖層 2-2"><g id="圖層_1-2-3" data-name="圖層 1-2-3"><path class="cls-7" d="M256.4,173.59c-.68-.76-1.09-1.5-1.64-2.13a15.12,15.12,0,0,0-7.76-5c-5.59-1.4-10.62,1.5-11.57,6.62a10.26,10.26,0,0,0,.4,5.37,33.23,33.23,0,0,0,13,18.37,21.93,21.93,0,0,0,4.19,2.25,9.59,9.59,0,0,0,9.13-1.4l4.19-3a29.11,29.11,0,0,0,10.21-12.74,12.82,12.82,0,0,0,.55-9c-1.92-5.75-8-8.12-13.89-5.37a17.88,17.88,0,0,0-5.59,4.19,15.21,15.21,0,0,1-1.4,1.74Z"/></g></g><rect class="cls-1" y="22" width="38" height="306"/><rect class="cls-1" width="543" height="30"/><rect class="cls-1" x="543" width="25" height="316"/><rect class="cls-1" x="519" y="308" width="49" height="20"/></g></g></g></svg>