<svg xmlns="http://www.w3.org/2000/svg" viewBox="0 0 399 399"><defs><style>.cls-1{fill:#fff;}.cls-2{fill:#6f4436;}</style></defs><title>資產 3</title><g id="圖層_2" data-name="圖層 2"><g id="圖層_1-2" data-name="圖層 1"><rect class="cls-1" width="399" height="399" rx="199.5" ry="199.5"/><path class="cls-2" d="M308.65,143.31c.16,2.23.16,4.45.16,6.68,0,67.89-51.68,146.12-146.12,146.12a145.13,145.13,0,0,1-78.87-23.06,106.25,106.25,0,0,0,12.4.64A102.85,102.85,0,0,0,160,251.75a51.45,51.45,0,0,1-48-35.62,64.77,64.77,0,0,0,9.7.79,54.32,54.32,0,0,0,13.52-1.75A51.36,51.36,0,0,1,94,164.78v-.64a51.72,51.72,0,0,0,23.21,6.52A51.43,51.43,0,0,1,101.31,102a146,146,0,0,0,105.9,53.74,58,58,0,0,1-1.27-11.77,51.41,51.41,0,0,1,88.88-35.14,101.11,101.11,0,0,0,32.6-12.4,51.22,51.22,0,0,1-22.58,28.3,103,103,0,0,0,29.57-7.95,110.4,110.4,0,0,1-25.76,26.55Z"/></g></g></svg>